<svg viewBox="0 0 150 150" xmlns="http://www.w3.org/2000/svg" xmlns:xlink="http://www.w3.org/1999/xlink" width="150.000000" height="150.000000" fill="none" customFrame="#000000">
	<g id="Group 43">
		<path id="Vector 88" d="M15.7158 43.5557C15 42.9333 14.751 41.9997 13.4129 35.7134C12.5726 31.7922 11.7012 28.4935 11.4834 28.369C11.2656 28.2134 8.8693 27.3109 6.16183 26.3462C0.809129 24.3856 0 23.8254 0 21.9271C0 20.2777 0.93361 19.6553 6.53527 17.6636C9.36722 16.6366 11.7324 15.7964 11.7635 15.7341C11.8257 15.703 12.5104 12.6843 13.2573 9.01213C14.0353 5.37105 14.8133 1.97894 15 1.48101C15.7158 -0.292847 18.4855 -0.54181 19.3568 1.10757C19.5436 1.44989 20.3838 4.87313 21.1929 8.70093C22.0021 12.5287 22.6867 15.6719 22.749 15.7341C22.8112 15.7652 25.1763 16.6366 28.0083 17.6325C33.61 19.6553 34.5436 20.2777 34.5436 21.9271C34.5436 23.8254 33.7344 24.3856 28.3817 26.3462C25.6743 27.3109 23.2469 28.2134 23.029 28.369C22.8112 28.5246 21.971 31.6366 21.1307 35.7445C19.7925 41.9997 19.5436 42.9333 18.8278 43.5557C18.3921 43.9291 17.6763 44.2403 17.2718 44.2403C16.8672 44.2403 16.1515 43.9291 15.7158 43.5557ZM18.8278 28.6179C19.1079 27.2798 19.5124 26.0038 19.7614 25.786C19.9793 25.537 22.0332 24.6968 24.305 23.8565C26.6079 23.0474 28.5996 22.2694 28.7241 22.1449C28.8485 22.0204 27.0436 21.2424 24.7095 20.4022C22.3444 19.5619 20.166 18.6594 19.8548 18.4105C19.4813 18.0993 19.0145 16.5121 18.361 13.4312C17.832 10.9416 17.3651 8.79429 17.334 8.63869C17.2718 8.48309 16.7739 10.5059 16.2448 13.1511C15.529 16.6055 15.0622 18.0681 14.6577 18.4416C14.3154 18.7217 12.1369 19.593 9.8029 20.4333C7.46888 21.2424 5.6639 22.0204 5.8195 22.1449C5.94398 22.2694 7.25104 22.7984 8.71369 23.3275C14.8444 25.5059 14.8755 25.537 15.2178 26.5951C15.4668 27.3731 16.9917 34.313 17.1473 35.4644C17.1784 35.7134 18.0498 32.1657 18.8278 28.6179Z" fill="rgb(255,255,255)" fill-rule="nonzero" transform="matrix(1,0,0,-1,36.0996,44.2404)" />
		<path id="Vector 89" d="M84.305 149.16C83.0602 148.506 82.4066 147.915 81.6909 146.763L80.7573 145.239L80.6639 113.216L80.6017 81.2241L78.61 81.2241L76.6494 81.2241L76.4627 82.6245C76.1826 84.5539 74.9378 87.0747 73.4129 88.8174C71.7946 90.6535 68.3091 92.3963 65.7884 92.6452L63.9523 92.8319L63.0498 94.7303C61.8361 97.2199 59.222 99.834 56.6079 101.11C50.8817 103.911 44.3465 102.79 39.7718 98.2469L37.8112 96.2863L36.1307 96.5975C32.583 97.2199 28.5062 95.8195 25.6743 93.0187C24.305 91.6805 23.9315 91.4938 22.8112 91.4938C19.6369 91.4938 15.8714 89.5643 13.6929 86.7946C12.666 85.4564 11.2033 82.4066 11.2033 81.5353C11.2033 81.3485 9.98963 81.2241 8.37137 81.2241C4.69917 81.2241 3.11203 80.7884 1.77386 79.4502C0.497925 78.2054 0 76.5249 0 73.6929C0 71.2033 0.435685 69.6784 1.46266 68.4647C2.61411 67.0954 3.76556 66.5975 5.88174 66.5975L7.74896 66.5975L7.90456 64.9793C8.02905 64.0768 9.08714 50.2282 10.2697 34.2324C11.4523 18.2365 12.5104 4.73029 12.6037 4.20124C12.8527 2.80083 14.0353 1.30705 15.4357 0.622407C16.6805 0 17.4585 0 71.6701 0C126.255 0 126.66 0 127.282 0.622407C127.624 0.96473 127.905 1.43154 127.905 1.6805C127.905 1.92946 127.158 3.57884 126.255 5.3527C123.797 10.1452 121.774 17.0539 121.183 22.6556C120.996 24.2116 121.058 24.5851 121.432 24.5851C122.365 24.5851 124.45 26.5145 125.228 28.0705C127.095 31.8361 125.602 36.2552 121.836 37.9979C120.685 38.527 119.595 38.5892 107.459 38.5892L94.2946 38.5892L94.2324 91.7427C94.139 149.564 94.2635 145.737 92.334 147.79C90.1245 150.093 87.1992 150.591 84.305 149.16ZM89.3776 145.363L90.4046 144.461L90.4046 91.5871L90.4046 38.7448L87.4481 38.7448L84.4917 38.7448L84.3983 91.1826C84.3361 130.083 84.4295 143.838 84.6784 144.492C85.4564 146.359 87.7905 146.795 89.3776 145.363ZM54.9585 97.7178C57.2614 96.5975 58.9419 94.8236 59.9689 92.4585C61.4938 88.9108 61.1826 89.1909 64.1079 89.0042C67.2199 88.8174 69.1805 88.0083 70.6743 86.2656C71.7946 84.9896 72.7905 82.9668 72.8216 81.9398L72.8216 81.2241L43.8797 81.2241L14.9378 81.2241L15.4046 82.3444C16.8983 85.8921 19.7925 87.7593 23.9004 87.7593L25.9232 87.7593L27.9772 89.9066C29.6577 91.6494 30.3423 92.1473 31.7116 92.5519C33.8278 93.1743 34.9481 93.1743 36.9087 92.583C39.3983 91.8361 39.6473 91.8983 41.2033 94.1079C44.471 98.7137 50.0104 100.176 54.9585 97.7178ZM18.9212 73.8485L19.0145 70.3319L11.8568 70.3319C4.82365 70.3319 4.69917 70.3319 4.23237 71.0166C3.73444 71.7324 3.54772 74.751 3.92116 76.1203C4.23237 77.334 5.13485 77.4585 12.1369 77.3963L18.8278 77.334L18.9212 73.8485ZM52.2199 67.8112C52.3133 57.0747 52.1888 56.3589 50.4149 55.1452C48.9523 54.1494 47.2718 54.3672 45.9336 55.6743L44.9689 56.639L44.8755 64.4813C44.7822 71.1722 44.7199 72.417 44.2842 72.8838C43.6618 73.5996 42.3859 73.5996 41.639 72.9149C41.11 72.4481 41.0788 71.5768 41.0788 58.2884C41.0788 42.7905 41.0477 42.5104 39.2427 41.5768C37.6556 40.7365 36.2552 40.9232 34.917 42.1369L33.7656 43.195L33.6722 52.7801C33.61 61.0892 33.5166 62.4585 33.0809 62.9253C32.4274 63.6722 31.2759 63.6411 30.4979 62.8631C29.9066 62.2718 29.8755 61.8361 29.8755 56.1411L29.8755 50.0415L28.8174 48.9834C27.9149 48.0809 27.5415 47.9253 26.2967 47.9253C25.0519 47.9253 24.6784 48.0809 23.7759 48.9834L22.7178 50.0415L22.7178 63.7656L22.7178 77.4896L37.4378 77.4274L52.1266 77.334L52.2199 67.8112ZM80.6017 73.9108L80.6017 70.3319L68.3091 70.3319L56.0166 70.3319L56.0166 73.9108L56.0166 77.4896L68.3091 77.4896L80.6017 77.4896L80.6017 73.9108ZM18.9834 57.7282C19.1701 48.0187 19.139 48.0498 21.4108 45.9958C22.0954 45.3734 23.1535 44.7199 23.8071 44.5021C24.9585 44.1286 28.2884 44.1909 29.2842 44.6266C29.6888 44.8133 29.8444 44.5954 30.0311 43.6929C30.9647 38.5892 36.1929 35.8817 40.6743 38.1224C43.8797 39.7407 44.8133 41.888 44.8133 47.6763C44.8133 51.4108 44.8444 51.722 45.3734 51.5042C48.8278 50.0726 52.3755 51.0062 54.4606 53.8693C55.6743 55.5498 56.0166 57.4481 56.0166 62.3963L56.0166 66.5975L65.9129 66.5975C71.3589 66.5975 75.9025 66.5353 75.9647 66.473C76.0581 66.3797 75.6535 60.4668 75.0934 53.3091C74.5643 46.1515 74.0975 39.9274 74.0975 39.4606L74.0664 38.5892L64.0456 38.5892L53.9938 38.5892L52.3755 37.6556C50.5083 36.5975 49.388 35.0726 48.8278 32.9253C48.112 30.0311 49.6369 26.6701 52.4378 25.0519C53.2158 24.5851 53.8382 24.056 53.8382 23.8693C53.8382 23.0602 52.8423 17.7386 52.251 15.4046C51.3174 11.7012 50.5394 9.4917 49.1079 6.47303L47.832 3.73444L32.4896 3.73444C15.9025 3.73444 16.1826 3.70332 16.1826 5.38382C16.1826 5.75726 15.1245 19.5747 13.8797 36.0996C12.6037 52.6245 11.639 66.2552 11.7324 66.3797C11.7946 66.5042 13.444 66.5664 15.3423 66.5353L18.8278 66.4419L18.9834 57.7282ZM80.6017 52.5934L80.6017 38.5892L79.2012 38.5892C78.4232 38.5892 77.8008 38.6826 77.8008 38.8382C77.8008 39.6162 79.6992 64.7614 79.8548 65.6017C79.9481 66.1307 80.1349 66.5975 80.2905 66.5975C80.4772 66.5975 80.6017 61.2759 80.6017 52.5934ZM121.245 33.7967C122.459 32.583 122.645 31.1203 121.805 29.5332C120.84 27.6349 122.241 27.6971 87.4481 27.6971C52.9668 27.6971 54.1805 27.6349 53.029 29.3776C51.971 31.027 52.5311 33.5166 54.2116 34.4502C54.7718 34.7614 61.9917 34.8237 87.5726 34.8548L120.187 34.8548L121.245 33.7967ZM117.604 21.0996C118.413 15.4046 119.689 11.0166 122.521 4.139C122.645 3.8278 121.089 3.73444 115.332 3.73444L107.988 3.73444L107.988 8.06017C107.988 11.9502 107.925 12.4481 107.334 13.195C106.618 14.1286 105.934 14.222 104.938 13.5062C104.284 13.0705 104.253 12.8527 104.253 8.37137L104.253 3.73444L99.8963 3.73444L95.5394 3.73444L95.5394 8.24689C95.5394 12.3548 95.4772 12.8216 94.917 13.3817C94.1701 14.1286 93.4232 14.1598 92.4896 13.5062C91.8361 13.0705 91.805 12.8527 91.805 8.37137L91.805 3.73444L87.4481 3.73444L83.0913 3.73444L83.0913 8.24689C83.0913 12.3548 83.029 12.8216 82.4689 13.3817C81.6909 14.1598 80.7573 14.1598 79.9793 13.3817C79.4191 12.8216 79.3568 12.3548 79.3568 8.24689L79.3568 3.73444L75 3.73444L70.6432 3.73444L70.6432 8.24689C70.6432 12.3548 70.5809 12.8216 70.0207 13.3817C69.2427 14.1598 68.3091 14.1598 67.5311 13.3817C66.971 12.8216 66.9087 12.3548 66.9087 8.24689L66.9087 3.73444L59.471 3.73444L52.0332 3.73444L53.2469 6.56639C54.834 10.1763 56.0788 14.7199 56.9813 19.8859L57.6971 23.9627L87.4481 23.9627L117.199 23.9627L117.604 21.0996Z" fill="rgb(255,255,255)" fill-rule="nonzero" transform="matrix(1,0,0,-1,22.0952,150)" />
		<path id="Vector 90" d="M13.444 36.5159C12.3237 36.0179 12.3237 35.9868 10.861 28.9847C10.3008 26.2773 9.70954 23.9744 9.52282 23.8499C9.3361 23.7254 7.93569 23.1652 6.37967 22.6362C0.591286 20.5822 0 20.1777 0 18.186C0 16.8478 0.995851 16.1632 5.22822 14.6383C7.5 13.798 9.46058 12.9889 9.61618 12.8333C9.77178 12.6777 10.3942 10.0947 11.0166 7.10714C11.639 4.11959 12.3548 1.34988 12.6349 0.976438C13.4751 -0.330616 15.4668 -0.330616 16.3382 1.00756C16.5871 1.381 17.3029 4.11959 17.9253 7.10714C18.5477 10.0947 19.139 12.6777 19.2635 12.8022C19.388 12.9266 21.3797 13.7358 23.6826 14.576C28.8174 16.5055 29.6577 17.3457 28.5996 19.6486C28.195 20.5511 27.8838 20.7067 22.8734 22.5428L19.139 23.9121L18.0809 29.1403C17.4896 32.0034 16.8361 34.7731 16.6494 35.3022C16.1203 36.5781 14.8133 37.076 13.444 36.5159ZM15.249 24.3789C15.4668 23.1964 15.8091 21.8893 16.0581 21.547C16.3071 21.1113 17.6141 20.4578 19.7303 19.6798C21.8154 18.9329 22.8734 18.4038 22.6245 18.2482C22.3755 18.1237 20.944 17.5636 19.4191 17.0345C17.8942 16.4744 16.4938 15.9142 16.2759 15.7586C15.9647 15.5096 15.5602 14.047 14.7822 10.2814C14.6577 9.72125 14.5021 9.28557 14.4398 9.34781C14.3776 9.44117 14.0664 10.7793 13.7241 12.3665C13.4129 13.9536 12.9461 15.4474 12.7282 15.6652C12.4793 15.8831 10.861 16.5988 9.08714 17.2213C7.31328 17.8748 5.91286 18.4349 5.9751 18.4661C6.03734 18.4972 7.5 19.0574 9.27386 19.7109C11.3589 20.4578 12.6349 21.1113 12.8838 21.547C13.1017 21.8893 13.5373 23.4453 13.8485 24.9702C14.471 28.02 14.5954 27.9578 15.249 24.3789Z" fill="rgb(255,255,255)" fill-rule="nonzero" transform="matrix(1,0,0,-1,0,52.854)" />
		<path id="Vector 91" d="M8.39459 73.2261C7.77219 72.6971 7.74107 72.3236 7.67883 67.251L7.58547 61.8672L5.96721 61.2448C3.97551 60.529 1.92157 58.5685 0.894595 56.4834L0.116586 54.9274L0.0232253 29.0975C-0.0390153 4.51245 -0.00789499 3.20539 0.521151 2.20954C1.70372 0.0311203 1.89045 0 14.4631 0C25.6353 0 25.6975 0 26.7556 0.715768C29.0274 2.24066 28.934 0.591286 28.8407 29.0975L28.7473 54.6162L28.0004 56.2655C27.0979 58.2572 24.4527 60.778 22.6166 61.3693L21.2784 61.8361L21.1228 67.3444C20.9672 72.3548 20.905 72.9149 20.3759 73.3195C19.9091 73.6618 18.5398 73.7552 14.4008 73.7552C9.76389 73.7552 8.95476 73.6929 8.39459 73.2261ZM17.3884 65.9751L17.3884 61.9295L14.4319 61.9295L11.4755 61.9295L11.4755 65.9751L11.4755 70.0207L14.4319 70.0207L17.3884 70.0207L17.3884 65.9751ZM21.3407 57.8527C23.8303 56.9191 25.1373 54.4917 25.1685 50.8195L25.1685 48.2365L14.4008 48.2365L3.63318 48.2365L3.75767 51.2863C3.85103 53.9938 3.94439 54.4917 4.69128 55.612C6.21617 57.9149 7.27426 58.195 14.3386 58.195C17.9174 58.195 20.8116 58.0705 21.3407 57.8527ZM25.1062 31.0581L25.1685 17.7386L14.4319 17.7386L3.69542 17.7386L3.69542 31.1203L3.69542 44.5021L14.3697 44.4398L25.0129 44.3465L25.1062 31.0581ZM25.0129 8.86929L25.0129 3.89004L14.3697 3.79668L3.69542 3.73444L3.69542 8.86929L3.69542 14.0041L14.3697 13.9419L25.0129 13.8485L25.0129 8.86929Z" fill="rgb(255,255,255)" fill-rule="nonzero" transform="matrix(1,0,0,-1,0.0390625,150)" />
	</g>
</svg>
