<svg viewBox="0 0 150 150" xmlns="http://www.w3.org/2000/svg" xmlns:xlink="http://www.w3.org/1999/xlink" width="150.000000" height="150.000000" fill="none">
	<defs>
		<clipPath id="clipPath_0">
			<rect width="150.000000" height="150.000000" x="0.000000" y="-32.000000" fill="rgb(255,255,255)" />
		</clipPath>
	</defs>
	<rect id="sofa 3" width="150.000000" height="150.000000" x="0.000000" y="0.000000" />
	<g id="Frame 51" customFrame="url(#clipPath_0)">
		<rect id="Frame 51" width="150.000000" height="150.000000" x="0.000000" y="-32.000000" />
		<path id="Vector 92" d="M106.019 -29.2483C108.249 -26.9746 109.269 -24.3813 109.387 -21.0513C109.14 -17.0242 106.979 -13.3615 105.325 -9.83668C103.125 -5.14321 100.97 -0.44532 99.0549 4.39462C99.3087 4.47645 99.5626 4.55829 99.8242 4.64261C101.146 5.15459 102.357 5.80302 103.6 6.50521C103.832 6.63015 104.063 6.75508 104.302 6.8838C106.137 7.92017 107.325 9.02199 108.204 11.1063C108.466 12.397 108.432 13.542 108.419 14.8632C108.627 14.8602 108.835 14.8572 109.049 14.8541C111.227 14.8241 113.404 14.8038 115.582 14.789C116.393 14.7822 117.204 14.773 118.015 14.7613C119.185 14.7448 120.355 14.7372 121.525 14.7313C121.885 14.7243 122.244 14.7173 122.614 14.7101C125.165 14.7094 127.408 15.1063 129.456 16.8537C129.615 17.0675 129.773 17.2812 129.936 17.5014C130.099 17.7125 130.263 17.9237 130.432 18.1412C131.672 20.23 131.963 21.882 131.919 24.3173C131.918 24.5988 131.917 24.8803 131.915 25.1703C131.91 26.0614 131.898 26.9523 131.886 27.8433C131.882 28.4508 131.877 29.0583 131.874 29.6657C131.863 31.1478 131.847 32.6298 131.828 34.1118C132.119 34.1057 132.41 34.0996 132.71 34.0933C133.097 34.0885 133.484 34.0837 133.882 34.0788C134.454 34.0696 134.454 34.0697 135.038 34.0603C138.99 34.2359 142.315 36.455 145.249 39.1772C148.67 43.2713 150.089 47.8949 149.996 53.3908C149.748 58.4569 147.646 62.6087 144.268 66.0623C142.762 67.4236 141.186 68.5587 139.319 69.2321C139.317 69.5731 139.315 69.914 139.313 70.2652C139.295 73.4847 139.273 76.7041 139.245 79.9236C139.231 81.5785 139.219 83.2335 139.211 84.8885C139.203 86.4869 139.19 88.0853 139.174 89.6837C139.169 90.2922 139.165 90.9007 139.164 91.5093C139.16 92.3645 139.152 93.2194 139.142 94.0745C139.142 94.3237 139.143 94.573 139.143 94.8297C139.109 96.8701 138.702 98.6904 137.567 100.37C135.403 102.582 133.5 103.388 130.525 103.372C130.199 103.372 129.873 103.371 129.538 103.37C129.128 103.367 128.719 103.364 128.297 103.36C126.337 103.35 126.337 103.35 124.337 103.339C124.337 106.794 124.337 110.249 124.337 113.808C125.813 113.792 127.289 113.777 128.81 113.76C129.745 113.754 130.679 113.747 131.614 113.742C133.098 113.734 134.581 113.724 136.065 113.706C137.261 113.691 138.457 113.683 139.653 113.68C140.11 113.677 140.566 113.672 141.023 113.665C141.662 113.655 142.301 113.654 142.94 113.655C143.304 113.652 143.667 113.649 144.042 113.646C144.937 113.808 144.937 113.808 145.53 114.439C145.873 115.159 145.873 115.159 145.873 116.024C145.448 117.147 145.01 117.345 144.001 117.86C143.194 117.955 142.464 117.997 141.658 117.988C141.424 117.989 141.19 117.991 140.949 117.992C140.161 117.996 139.374 117.992 138.586 117.989C138.017 117.99 137.447 117.992 136.878 117.994C135.312 117.998 133.745 117.996 132.179 117.993C130.49 117.99 128.802 117.994 127.113 117.997C123.805 118.001 120.496 118 117.188 117.997C114.499 117.995 111.811 117.995 109.123 117.996C108.74 117.996 108.358 117.996 107.964 117.996C107.188 117.997 106.412 117.997 105.635 117.997C98.3501 118 91.0651 117.997 83.78 117.991C77.5254 117.987 71.2709 117.988 65.0163 117.992C57.7578 117.998 50.4993 118 43.2408 117.997C42.4672 117.996 41.6936 117.996 40.92 117.996C40.5393 117.996 40.1586 117.996 39.7665 117.995C37.0805 117.995 34.3946 117.996 31.7086 117.998C28.4366 118.001 25.1645 118 21.8925 117.995C20.2222 117.992 18.5519 117.991 16.8816 117.995C15.3537 117.998 13.8259 117.996 12.298 117.991C11.7441 117.99 11.1903 117.99 10.6364 117.993C9.88559 117.996 9.13499 117.992 8.38417 117.988C8.05898 117.991 8.05898 117.991 7.72724 117.995C6.39056 117.978 5.54121 117.739 4.48132 116.847C4.1692 116.024 4.1692 116.024 4.1692 115.159C4.51256 114.439 4.51256 114.439 5.10557 113.808C6.00023 113.646 6.00023 113.646 7.1029 113.655C7.40449 113.654 7.40449 113.654 7.71219 113.654C8.37606 113.655 9.03951 113.665 9.7033 113.676C10.1638 113.679 10.6243 113.68 11.0849 113.682C12.2964 113.687 13.5078 113.7 14.7193 113.715C16.1732 113.731 17.6271 113.738 19.0811 113.746C21.2894 113.759 23.4974 113.785 25.7057 113.808C25.7057 110.353 25.7057 106.899 25.7057 103.339C23.1615 103.379 23.1615 103.379 20.6173 103.431C17.9725 103.451 15.4955 103.247 13.4354 101.271C13.1475 101.008 13.1475 101.008 12.8538 100.741C10.6263 97.6959 10.8473 94.2665 10.8457 90.569C10.841 89.9525 10.8358 89.336 10.8301 88.7195C10.8165 87.1056 10.8102 85.4919 10.8055 83.878C10.7994 82.2276 10.7863 80.5773 10.7738 78.927C10.7503 75.6954 10.7346 72.4638 10.7238 69.2321C10.5092 69.1189 10.2946 69.0057 10.0734 68.889C9.79206 68.7391 9.51069 68.5891 9.22079 68.4346C8.94179 68.2865 8.6628 68.1385 8.37535 67.9859C4.73831 65.9044 2.07978 61.943 0.743152 57.8244C-0.582603 52.8376 -0.145784 47.6059 2.14405 43.0383C4.66514 38.5782 8.4002 35.4781 13.1109 34.2211C14.7976 33.97 16.5165 34.0671 18.2148 34.1118C18.2082 33.739 18.2017 33.3662 18.195 32.9821C18.1722 31.5868 18.158 30.1916 18.1462 28.7962C18.14 28.1945 18.1315 27.5929 18.1206 26.9913C18.0011 20.201 18.0011 20.201 20.0436 17.4618C20.2384 17.2868 20.4331 17.1119 20.6337 16.9316C20.8252 16.7513 21.0168 16.5711 21.2141 16.3854C23.3382 14.936 25.2715 14.7131 27.7205 14.7172C28.0375 14.7137 28.3545 14.7103 28.6811 14.7067C29.7214 14.6966 30.7616 14.6934 31.8019 14.6904C32.5261 14.6847 33.2503 14.6785 33.9746 14.672C35.8751 14.656 37.7757 14.6459 39.6763 14.6371C41.618 14.627 43.5596 14.6113 45.5012 14.5961C49.3068 14.567 53.1125 14.5443 56.9181 14.5255C59.5531 9.13355 59.5531 9.13355 62.056 3.6691C62.1593 3.43541 62.2626 3.20173 62.369 2.96096C62.7773 2.03434 63.1836 1.10674 63.5884 0.178368C66.8597 -7.30791 66.8597 -7.30791 69.4031 -8.77551C72.0997 -9.74801 74.491 -9.123 76.966 -7.79276C77.277 -7.61559 77.588 -7.43842 77.9085 -7.25588C78.234 -7.07871 78.5595 -6.90154 78.8948 -6.719C79.6881 -6.28591 80.4773 -5.84587 81.2638 -5.39855C81.3506 -5.69524 81.4374 -5.99192 81.5268 -6.29759C81.8566 -7.32668 82.2334 -8.27155 82.6741 -9.24949C82.8305 -9.59785 82.9869 -9.94622 83.148 -10.3051C83.4006 -10.8624 83.4006 -10.8624 83.6584 -11.4309C83.8332 -11.8181 84.008 -12.2053 84.1881 -12.6042C84.5579 -13.4223 84.9283 -14.24 85.2995 -15.0574C85.771 -16.0962 86.2396 -17.1365 86.7075 -18.1772C87.1589 -19.1797 87.6132 -20.1807 88.0671 -21.1819C88.233 -21.5513 88.3989 -21.9208 88.5698 -22.3014C90.2143 -25.9076 92.0118 -29.7919 95.6605 -31.3589C99.4509 -32.6464 102.953 -32.0203 106.019 -29.2483ZM94.373 -25.3226C93.9406 -24.5556 93.5907 -23.8535 93.2513 -23.0431C93.0383 -22.5597 92.8249 -22.0765 92.6112 -21.5934C92.4373 -21.1949 92.4373 -21.1949 92.2599 -20.7883C91.5267 -19.129 90.7567 -17.4894 89.9935 -15.846C89.6601 -15.125 89.3269 -14.4038 88.9937 -13.6826C87.4575 -10.3585 85.9213 -7.03427 84.385 -3.71008C85.9658 -2.38744 87.7506 -1.53284 89.5435 -0.600657C90.1789 -0.269753 90.8126 0.0647964 91.4462 0.399651C91.8499 0.610714 92.2537 0.82156 92.6575 1.03217C93.2071 1.3196 93.2071 1.3196 93.7677 1.61283C94.663 2.09627 94.663 2.09627 95.6215 2.03075C96.8361 -0.550295 98.0465 -3.13355 99.2518 -5.71969C99.8117 -6.92073 100.373 -8.12098 100.938 -9.31948C101.483 -10.4782 102.025 -11.6388 102.565 -12.8009C102.77 -13.2419 102.977 -13.6821 103.185 -14.1215C105.329 -18.4598 105.329 -18.4598 105.278 -23.212C104.61 -25.0043 103.758 -26.2233 102.235 -27.2854C99.0799 -28.557 96.7477 -27.8897 94.373 -25.3226ZM69.4031 -3.37238C68.9386 -2.46396 68.5731 -1.52668 68.2131 -0.565287C67.8823 0.300415 67.5501 1.16552 67.2182 2.03075C67.5205 2.19423 67.8229 2.3577 68.1344 2.52613C70.521 3.81684 72.9071 5.10858 75.2924 6.4021C77.1269 7.39689 78.9617 8.39101 80.7965 9.38488C82.0175 10.0462 83.2383 10.7079 84.4589 11.3701C91.3545 15.1123 91.3545 15.1123 98.2831 18.7823C98.5751 18.9365 98.8672 19.0908 99.1681 19.2497C99.4317 19.3863 99.6952 19.5229 99.9668 19.6637C100.305 19.8401 100.305 19.8401 100.65 20.0201C101.28 20.3271 101.28 20.3271 102.176 20.2663C102.606 19.362 103.027 18.4547 103.444 17.5436C103.627 17.1626 103.627 17.1626 103.813 16.7739C104.376 15.5278 104.669 14.665 104.711 13.2604C104.159 11.5289 102.938 10.7444 101.511 9.88307C101.158 9.70299 100.806 9.52291 100.442 9.33737C100.243 9.23431 100.044 9.13125 99.8387 9.02507C99.4041 8.80047 98.969 8.57713 98.5334 8.35491C97.3234 7.73731 96.1178 7.10975 94.9119 6.48279C94.6506 6.34715 94.3893 6.21151 94.1201 6.07177C90.2635 4.06376 86.4447 1.97247 82.6214 -0.108509C81.986 -0.45434 81.3504 -0.799917 80.7147 -1.14521C80.1349 -1.46019 79.5553 -1.77575 78.9761 -2.09204C74.0149 -5.37316 74.0149 -5.37316 69.4031 -3.37238ZM65.3455 5.7454C65.2151 6.03637 65.0847 6.32735 64.9504 6.62715C64.4586 7.72215 63.9625 8.81478 63.4652 9.90682C63.2519 10.3768 63.0397 10.8474 62.8288 11.3186C60.0418 17.5388 56.8721 21.3105 50.8086 23.7554C49.9355 24.0717 49.0617 24.3746 48.1787 24.6563C49.3245 25.6908 50.6023 26.3324 51.9388 27.0242C52.1795 27.1502 52.4202 27.2761 52.6682 27.406C53.434 27.8064 54.2007 28.2048 54.9674 28.6032C55.488 28.875 56.0086 29.1469 56.5292 29.419C57.8026 30.0843 59.0768 30.7478 60.3515 31.4103C61.3456 30.5068 61.8281 29.3458 62.3815 28.1058C62.4826 27.884 62.5837 27.6622 62.6879 27.4336C63.0099 26.7269 63.3293 26.0189 63.6483 25.3106C63.9687 24.6013 64.2896 23.8922 64.612 23.184C64.8124 22.7438 65.0115 22.303 65.2092 21.8614C65.61 20.9795 65.9467 20.2912 66.594 19.5909C67.7254 19.5487 67.7254 19.5487 68.7788 19.5909C69.1682 22.7683 67.7712 25.1323 66.4379 27.8433C66.1025 28.5378 65.7688 29.2332 65.436 29.9291C65.2295 30.3598 65.0212 30.7894 64.8108 31.2179C64.2683 32.2699 64.2683 32.2699 64.097 33.4364C65.1234 34.0014 66.1511 34.5634 67.1792 35.1249C67.4717 35.286 67.7642 35.447 68.0656 35.613C68.3452 35.7653 68.6248 35.9177 68.913 36.0747C69.1712 36.2161 69.4295 36.3576 69.6955 36.5034C70.317 36.8591 70.3171 36.8591 70.9637 36.8134C71.0566 36.6003 71.1495 36.3873 71.2453 36.1677C71.6644 35.2077 72.0846 34.2482 72.5048 33.2887C72.6511 32.9533 72.7973 32.6179 72.948 32.2723C73.1577 31.794 73.1577 31.794 73.3717 31.306C73.5008 31.0107 73.63 30.7154 73.763 30.4111C74.0849 29.7218 74.0849 29.7218 74.3971 29.3841C75.47 29.2997 75.47 29.2997 76.5819 29.3841C77.2062 30.3972 77.2062 30.3972 77.1781 31.2651C76.7862 32.8633 76.1424 34.2782 75.47 35.7581C75.0129 36.775 74.5559 37.7919 74.0849 38.8396C76.248 39.9539 78.411 41.0683 80.6395 42.2165C81.3526 41.1879 81.8393 40.3683 82.3451 39.2351C82.49 38.9129 82.6348 38.5906 82.7841 38.2586C82.9382 37.9132 83.0923 37.5677 83.2511 37.2118C83.5821 36.4804 83.9134 35.7492 84.2448 35.0181C84.7656 33.8661 85.2848 32.7134 85.8001 31.5585C86.2985 30.4434 86.803 29.3318 87.3088 28.2206C87.4616 27.8738 87.6145 27.5269 87.772 27.1696C87.9188 26.8495 88.0657 26.5294 88.2169 26.1996C88.4071 25.776 88.4071 25.776 88.6011 25.3438C89.1898 24.4749 89.6748 24.2558 90.6275 23.9809C91.3493 24.2764 91.3493 24.2764 91.876 24.6563C92.0937 26.938 91.3637 28.4244 90.3959 30.4183C90.2449 30.7391 90.094 31.06 89.9385 31.3905C89.457 32.4126 88.9697 33.4312 88.4817 34.4495C87.9967 35.4683 87.513 36.4878 87.0315 37.5085C86.7322 38.1423 86.4308 38.7749 86.1269 39.4062C85.9895 39.6959 85.8521 39.9855 85.7105 40.284C85.5899 40.5356 85.4693 40.7872 85.345 41.0464C84.9309 42.0731 84.6695 43.1655 84.385 44.2427C88.2991 46.36 92.2131 48.4774 96.2457 50.6589C96.6651 49.2976 96.2346 48.4104 95.8166 47.1131C93.6628 39.9861 95.5649 34.5346 98.5396 28.1446C98.7618 27.6714 98.9865 27.1997 99.2141 26.7295C99.8377 25.4255 99.8377 25.4255 99.9912 23.9809C97.2669 22.5032 94.5422 21.0263 91.817 19.5503C90.5508 18.8644 89.2847 18.1783 88.0189 17.4916C82.8383 14.6814 77.6582 11.8769 72.4181 9.1982C70.7417 8.33886 69.0852 7.43788 67.4367 6.51777C66.442 5.93353 66.442 5.93353 65.3455 5.7454ZM22.2976 21.0092C21.8248 22.3343 21.8438 23.5188 21.8688 24.9268C21.8701 25.2092 21.8715 25.4916 21.8728 25.7826C21.8781 26.6807 21.8898 27.5785 21.9017 28.4765C21.9064 29.0871 21.9107 29.6976 21.9145 30.3081C21.9248 31.8013 21.941 33.2942 21.9603 34.7872C22.437 35.0537 22.437 35.0537 22.9234 35.3255C23.3465 35.565 23.7696 35.8046 24.1927 36.0443C24.4014 36.1606 24.6102 36.2769 24.8253 36.3967C28.3598 38.4088 30.8764 41.3376 32.3384 45.3613C34.5512 53.142 33.6778 61.0239 33.821 69.2321C61.0132 69.2321 88.2054 69.2321 116.222 69.2321C116.537 68.2079 116.574 67.5146 116.578 66.4431C116.58 66.0798 116.582 65.7166 116.585 65.3423C116.587 64.7519 116.587 64.7519 116.589 64.1496C116.596 63.3126 116.603 62.4756 116.611 61.6386C116.622 60.322 116.631 59.0054 116.636 57.6888C116.662 50.8442 116.758 44.6033 121.274 39.2406C123.223 37.2893 125.726 36.0565 128.082 34.7872C128.113 32.9968 128.136 31.2066 128.151 29.4159C128.157 28.8073 128.166 28.1987 128.177 27.5902C128.192 26.7133 128.199 25.8368 128.204 24.9597C128.211 24.6895 128.217 24.4193 128.224 24.1408C128.224 22.3596 127.972 21.307 126.834 19.9286C125.08 18.4729 122.924 18.7881 120.818 18.8166C120.219 18.8187 120.219 18.8187 119.609 18.8209C118.552 18.8256 117.497 18.8347 116.441 18.846C115.361 18.8564 114.281 18.861 113.202 18.8661C111.087 18.8772 108.972 18.8941 106.858 18.9155C105.045 22.6085 103.246 26.3069 101.552 30.0658C101.355 30.5029 101.155 30.939 100.954 31.3744C98.6738 36.3172 97.3536 40.5384 99.0183 45.9905C99.3643 47.037 99.7232 48.0776 100.083 49.1188C100.715 51.0325 101.151 52.3899 100.615 54.3735C99.9104 55.2831 99.4868 55.3735 98.3965 55.4932C96.8661 55.3589 95.8338 54.8039 94.49 54.0398C94.233 53.8987 93.976 53.7576 93.7113 53.6122C92.8893 53.1599 92.0704 52.7012 91.2518 52.2418C90.1861 51.6505 89.1193 51.0617 88.0525 50.4729C87.7803 50.3221 87.5081 50.1713 87.2277 50.0159C85.2419 48.9199 83.239 47.8683 81.2248 46.8348C76.7857 44.5558 72.4013 42.1606 68.0119 39.772C63.4549 37.2935 58.8814 34.8623 54.2749 32.4932C52.508 31.5818 50.7482 30.6551 48.994 29.7154C48.596 29.503 48.1972 29.292 47.798 29.0822C47.1999 28.7679 46.604 28.4493 46.0084 28.1296C45.6667 27.9481 45.325 27.7666 44.973 27.5796C44.1141 27.0156 43.6793 26.6069 43.1847 25.6694C43.0481 24.4875 43.0481 24.4875 43.1847 23.3056C44.058 22.1293 44.88 21.6855 46.1938 21.2319C46.5277 21.1144 46.8616 20.9968 47.2057 20.8757C47.726 20.6994 47.726 20.6994 48.2567 20.5196C48.6083 20.3968 48.96 20.2741 49.3223 20.1476C50.1886 19.8458 51.0558 19.5478 51.9241 19.2532C51.9241 19.1418 51.9241 19.0303 51.9241 18.9155C48.4621 18.8842 45 18.8602 41.5378 18.8455C39.9301 18.8385 38.3224 18.8289 36.7147 18.8136C35.1625 18.7989 33.6103 18.7909 32.058 18.7874C31.4666 18.7849 30.8751 18.78 30.2837 18.7727C29.4535 18.7629 28.6238 18.7616 27.7936 18.7622C27.5505 18.7573 27.3073 18.7525 27.0568 18.7475C25.08 18.7635 23.6373 19.3478 22.2976 21.0092ZM6.21995 43.8219C3.99244 47.269 3.35459 51.1669 4.00094 55.2917C4.779 58.4212 6.41214 61.5487 8.85106 63.4913C10.556 64.5326 12.2962 65.5217 14.1572 66.1929C14.6538 67.2676 14.5143 68.4295 14.5136 69.6097C14.5146 69.8931 14.5157 70.1766 14.5168 70.4685C14.5191 71.0853 14.5208 71.702 14.5219 72.3187C14.5242 73.2953 14.5291 74.2718 14.5348 75.2484C14.5512 78.0255 14.5662 80.8026 14.571 83.5798C14.5742 85.2775 14.5833 86.9752 14.5964 88.6729C14.6002 89.3196 14.6018 89.9664 14.6011 90.6132C14.6004 91.5195 14.6073 92.4253 14.616 93.3315C14.6139 93.5979 14.6119 93.8643 14.6097 94.1387C14.637 95.8819 14.9248 96.9221 16.0299 98.274C17.3707 99.1419 18.3575 99.4138 19.9119 99.4145C20.3124 99.4172 20.713 99.4198 21.1256 99.4225C21.5678 99.4203 22.01 99.418 22.4521 99.4157C22.9236 99.4168 23.3951 99.4185 23.8666 99.4205C25.1613 99.4247 26.4559 99.4226 27.7505 99.4195C29.1471 99.4172 30.5437 99.4207 31.9403 99.4235C34.6759 99.428 37.4114 99.427 40.1469 99.4241C42.37 99.4218 44.593 99.4215 46.816 99.4226C47.1323 99.4228 47.4485 99.4229 47.7744 99.4231C48.4168 99.4234 49.0592 99.4237 49.7017 99.4241C55.7275 99.427 61.7533 99.4236 67.7791 99.4182C72.9508 99.4137 78.1224 99.4144 83.2941 99.4191C89.2982 99.4245 95.3023 99.4267 101.306 99.4236C101.946 99.4232 102.587 99.4229 103.227 99.4226C103.542 99.4224 103.857 99.4223 104.181 99.4221C106.402 99.4213 108.622 99.4227 110.843 99.4251C113.549 99.4279 116.255 99.4272 118.96 99.4218C120.341 99.4191 121.722 99.4181 123.103 99.4214C124.367 99.4245 125.63 99.4228 126.894 99.4174C127.351 99.4163 127.809 99.4169 128.266 99.4193C128.888 99.4224 129.509 99.4186 130.131 99.4145C130.649 99.4143 130.649 99.4143 131.177 99.414C132.719 99.2106 133.719 98.6328 134.744 97.3798C135.393 95.9601 135.439 94.8921 135.427 93.3315C135.429 93.0458 135.432 92.76 135.435 92.4656C135.443 91.5259 135.441 90.5866 135.44 89.6469C135.444 88.9927 135.449 88.3385 135.454 87.6843C135.466 85.9658 135.47 84.2474 135.473 82.5288C135.48 79.7733 135.497 77.0179 135.514 74.2624C135.518 73.299 135.521 72.3356 135.522 71.3722C135.525 70.7847 135.527 70.1972 135.529 69.6097C135.529 69.3406 135.529 69.0715 135.529 68.7943C135.538 66.9447 135.538 66.9447 135.885 66.1929C136.457 65.92 137.037 65.6705 137.622 65.4331C141.028 63.9352 143.784 61.429 145.319 57.7439C146.62 54.1573 146.669 50.1643 145.249 46.6065C143.658 43.1427 141.63 40.8084 138.382 39.1772C138.066 39.0147 138.066 39.0147 137.744 38.8488C134.738 37.5344 131.19 37.7339 128.236 39.0902C124.335 41.2205 122.17 44.1522 120.577 48.5147C120.234 49.8196 120.188 51.0307 120.19 52.3749C120.188 52.6409 120.185 52.907 120.183 53.1811C120.179 53.756 120.176 54.3308 120.175 54.9057C120.172 55.8174 120.166 56.7289 120.158 57.6405C120.143 59.5767 120.133 61.5129 120.123 63.4491C120.112 65.6915 120.099 67.9339 120.081 70.1762C120.075 71.0711 120.072 71.9659 120.069 72.8608C120.065 73.414 120.061 73.9672 120.057 74.5203C120.057 74.7664 120.057 75.0124 120.058 75.2659C120.035 77.3052 119.811 79.2245 118.797 80.9882C117.007 82.8711 115.245 82.8862 112.883 82.8709C112.546 82.8727 112.21 82.8745 111.863 82.8764C110.735 82.8812 109.607 82.8788 108.48 82.8764C107.671 82.8783 106.863 82.8807 106.054 82.8834C104.086 82.8892 102.117 82.8895 100.149 82.8878C98.5491 82.8864 96.9491 82.8869 95.3491 82.8887C95.0074 82.8891 95.0074 82.8891 94.6588 82.8895C94.196 82.89 93.7332 82.8905 93.2703 82.891C88.9313 82.8956 84.5923 82.8938 80.2532 82.8899C76.2847 82.8866 72.3162 82.8909 68.3477 82.899C64.2714 82.9073 60.1952 82.9105 56.1189 82.9083C53.8309 82.9071 51.543 82.9078 49.255 82.9137C47.1038 82.9192 44.9526 82.9176 42.8014 82.9113C42.0116 82.91 41.2218 82.9111 40.432 82.9146C39.3543 82.9191 38.277 82.9152 37.1994 82.9092C36.8864 82.9125 36.5734 82.9157 36.2509 82.919C34.336 82.8972 33.2002 82.6079 31.6361 81.3892C30.4415 79.9023 30.2064 78.6686 30.2271 76.7537C30.2249 76.5003 30.2227 76.2468 30.2204 75.9857C30.2144 75.1516 30.2169 74.3178 30.2193 73.4837C30.2163 72.899 30.2125 72.3142 30.2082 71.7295C30.1981 70.1907 30.1948 68.6518 30.1936 67.1129C30.1908 64.6587 30.1796 62.2045 30.1648 59.7504C30.1609 58.8995 30.1611 58.0488 30.1618 57.1979C30.1484 51.3749 29.6502 46.2846 25.7679 41.8683C22.7902 38.9842 19.5904 37.9457 15.6507 38.0481C11.6593 38.4403 8.7529 40.5524 6.21995 43.8219ZM33.821 73.2845C33.821 74.8446 33.821 76.4048 33.821 78.0122C34.616 79.0637 34.616 79.0637 35.3889 79.1519C35.6327 79.1519 35.8764 79.1519 36.1276 79.1519C36.4094 79.1543 36.6912 79.1567 36.9815 79.1592C37.2915 79.1567 37.6014 79.1542 37.9208 79.1517C38.2498 79.153 38.5788 79.1544 38.9177 79.1558C40.0255 79.159 41.1332 79.155 42.241 79.151C43.033 79.1519 43.825 79.1531 44.617 79.1548C46.5481 79.1576 48.4791 79.1558 50.4102 79.1516C52.6578 79.1471 54.9054 79.1476 57.153 79.1483C61.1626 79.1494 65.1722 79.1455 69.1818 79.1388C73.0748 79.1324 76.9678 79.13 80.8608 79.1319C85.0974 79.1339 89.334 79.1339 93.5706 79.1301C94.0221 79.1297 94.4737 79.1292 94.9252 79.1288C95.1474 79.1286 95.3696 79.1284 95.5985 79.1282C97.1661 79.1269 98.7338 79.1271 100.301 79.1277C102.41 79.1285 104.519 79.1256 106.628 79.1202C107.404 79.1188 108.18 79.1185 108.955 79.1195C110.011 79.1205 111.066 79.1175 112.122 79.1133C112.432 79.1146 112.742 79.1159 113.061 79.1172C113.343 79.1152 113.625 79.1133 113.915 79.1113C114.159 79.111 114.403 79.1107 114.654 79.1104C115.383 79.0639 115.383 79.0639 116.222 78.3499C116.222 76.6783 116.222 75.0067 116.222 73.2845C89.0294 73.2845 61.8372 73.2845 33.821 73.2845ZM29.4512 103.339C29.4512 106.794 29.4512 110.249 29.4512 113.808C30.6872 113.808 31.9233 113.808 33.1967 113.808C34.1116 112.757 34.5776 112.071 35.167 110.832C35.4763 110.243 35.7855 109.654 36.0948 109.066C36.2389 108.779 36.383 108.492 36.5315 108.196C37.0672 107.147 37.6597 106.155 38.2687 105.154C38.8576 104.312 38.8576 104.312 39.1271 103.339C35.934 103.339 32.741 103.339 29.4512 103.339ZM39.8639 108.397C39.6108 109.072 39.3738 109.754 39.1609 110.445C38.8149 111.444 38.8149 111.444 37.5665 113.808C62.2867 113.808 87.0069 113.808 112.476 113.808C111.308 111.5 111.308 111.5 110.045 109.275C109.827 108.913 109.827 108.913 109.604 108.543C109.457 108.303 109.311 108.062 109.16 107.814C108.863 107.323 108.566 106.833 108.27 106.342C108.141 106.129 108.012 105.917 107.879 105.698C107.482 105.028 107.482 105.028 107.144 104.158C106.589 103.216 106.589 103.216 105.459 103.109C104.997 103.091 104.534 103.083 104.071 103.082C103.816 103.075 103.561 103.067 103.299 103.06C102.441 103.038 101.584 103.029 100.726 103.019C100.112 103.006 99.4987 102.993 98.885 102.979C96.8658 102.936 94.8465 102.912 92.827 102.89C92.1312 102.881 91.4353 102.872 90.7395 102.864C87.8429 102.829 84.9464 102.798 82.0498 102.781C77.9033 102.755 73.7588 102.702 69.6131 102.61C66.6959 102.548 63.7793 102.516 60.8615 102.508C59.1199 102.502 57.3806 102.483 55.6396 102.431C46.1052 101.718 46.1052 101.718 39.8639 108.397ZM110.916 103.339C112.084 105.647 112.084 105.647 113.347 107.872C113.492 108.113 113.638 108.355 113.788 108.604C113.935 108.845 114.081 109.085 114.232 109.333C114.529 109.824 114.825 110.315 115.122 110.806C115.251 111.018 115.38 111.23 115.513 111.449C115.972 112.225 116.408 113.018 116.846 113.808C118.082 113.808 119.318 113.808 120.591 113.808C120.591 110.353 120.591 106.899 120.591 103.339C117.398 103.339 114.205 103.339 110.916 103.339Z" fill="rgb(255,255,255)" fill-rule="nonzero" />
	</g>
	<path id="Vector 93" d="M23.6087 73.6663C25.0123 74.9931 25.8556 76.6943 26.051 78.638C26.078 80.7924 25.6389 82.6158 24.1871 84.2198C22.3096 85.9948 20.6374 86.6307 18.0792 86.5526C16.0402 86.3528 14.5436 85.4934 13.1625 83.9552C11.7571 81.9473 11.5403 79.9347 11.7914 77.5186C12.4107 75.4305 13.6212 73.9971 15.3563 72.7612C18.026 71.334 21.2483 71.8684 23.6087 73.6663ZM16.4532 76.1194C15.4939 77.1234 15.1259 77.8839 14.9964 79.2852C15.1285 80.8758 15.7772 81.65 16.9502 82.6609C17.9944 83.2041 18.5851 83.2635 19.7439 83.1157C21.1598 82.6057 21.7868 81.9449 22.4861 80.597C22.8228 79.5202 22.7877 79.0116 22.4689 77.9209C21.7222 76.5689 20.9799 75.8038 19.5039 75.2798C18.3525 75.2798 17.4579 75.5466 16.4532 76.1194Z" fill="rgb(255,255,255)" fill-rule="nonzero" />
	<path id="Vector 94" d="M126.139 73.6325C127.768 75.1911 128.576 77.0024 128.655 79.2732C128.532 81.3998 127.896 83.0448 126.436 84.5816C124.669 86.1159 122.945 86.7012 120.629 86.5919C118.68 86.3021 117.087 85.3808 115.722 83.9552C114.402 81.7533 113.967 79.605 114.51 77.053C115.149 75.1364 116.293 73.9009 117.916 72.7612C120.701 71.4751 123.677 71.7695 126.139 73.6325ZM119.013 76.1194C118.054 77.1235 117.686 77.8839 117.556 79.2852C117.688 80.8758 118.337 81.65 119.51 82.6609C120.554 83.2042 121.145 83.2635 122.304 83.1157C123.578 82.6312 124.343 82.0715 125.046 80.8769C125.385 79.7287 125.402 78.8878 125.029 77.746C124.228 76.5597 123.41 75.7579 122.064 75.2799C120.912 75.2799 120.018 75.5466 119.013 76.1194Z" fill="rgb(255,255,255)" fill-rule="nonzero" />
	<path id="Vector 95" d="M60.5603 73.169C62.2941 74.4351 63.1943 75.9514 63.6196 78.0784C63.9216 80.2433 63.3684 82.196 62.1189 83.9684C60.7993 85.4582 59.167 86.2768 57.2236 86.5701C55.2735 86.6535 53.453 86.1309 51.8966 84.9172C50.2836 83.3517 49.5576 81.5797 49.48 79.3202C49.5909 76.9099 50.206 75.4146 51.9308 73.7582C54.3479 71.601 57.8389 71.5595 60.5603 73.169ZM53.2334 77.3088C52.8189 78.3428 52.7647 79.2151 52.9249 80.3172C53.4818 81.6334 54.4155 82.4771 55.6671 83.1157C56.938 83.152 58.0594 83.0222 59.0778 82.2062C59.9896 81.2075 60.2644 80.5532 60.4318 79.2153C60.2647 77.8229 59.5411 77.0216 58.6322 76.0145C56.6039 74.8186 54.6786 75.539 53.2334 77.3088Z" fill="rgb(255,255,255)" fill-rule="nonzero" />
	<path id="Vector 96" d="M47.2155 30.9804C48.5942 31.9827 49.5919 33.269 49.9085 34.9814C50.0932 37.0632 50.0984 38.8727 48.8116 40.5784C47.2726 42.2659 45.915 43.0923 43.6356 43.1845C41.9023 43.1419 40.6152 42.7542 39.2824 41.6103C37.4188 39.3387 37.0568 37.6229 37.2942 34.7015C37.7501 32.964 38.8419 31.7375 40.3107 30.7836C42.5853 29.6014 44.9913 29.7122 47.2155 30.9804ZM41.1334 34.4217C40.3972 35.5486 40.3979 36.4557 40.5849 37.7799C41.1526 38.7523 41.7137 39.3872 42.7787 39.7388C43.8731 39.8845 44.3405 39.7864 45.3153 39.2316C46.1093 38.6511 46.1093 38.6511 46.6178 37.7799C46.7098 36.6159 46.7295 35.8428 46.3265 34.754C45.6091 33.9275 44.8909 33.6538 43.8756 33.3023C42.7831 33.3023 42.0015 33.7833 41.1334 34.4217Z" fill="rgb(255,255,255)" fill-rule="nonzero" />
	<path id="Vector 97" d="M111.061 31.3433C112.346 32.5312 113.154 33.7669 113.347 35.5553C113.373 37.7966 113.218 39.3503 111.744 41.0572C110.413 42.3526 108.921 43.0368 107.08 43.1331C105.173 43.0346 103.766 42.3619 102.413 40.9916C100.926 39.249 100.79 37.9499 100.83 35.6766C100.988 33.8502 101.634 32.7502 102.937 31.5182C105.306 29.6412 108.577 29.6567 111.061 31.3433ZM104.753 34.4217C104.016 35.5499 104.02 36.4546 104.205 37.7799C104.702 38.6621 105.097 39.0578 105.953 39.5639C106.862 39.7849 107.421 39.7262 108.318 39.459C109.306 38.7688 109.306 38.7688 109.964 37.7799C110.13 36.346 110.13 36.346 109.677 35.0306C109.188 34.4249 108.736 33.9353 108.044 33.5821C106.674 33.4766 105.853 33.5561 104.753 34.4217Z" fill="rgb(255,255,255)" fill-rule="nonzero" />
</svg>
