<svg viewBox="0 0 150 150" xmlns="http://www.w3.org/2000/svg" xmlns:xlink="http://www.w3.org/1999/xlink" width="150.000000" height="150.000000" fill="none" customFrame="#000000">
	<g id="Group 43">
		<path id="Vector 86" d="M123.329 149.587C122.515 149.073 112.902 136.464 109.436 131.359L106.844 127.556L104.102 128.892C102.595 129.611 100.275 130.639 98.9487 131.119C97.6227 131.599 96.3871 132.147 96.1761 132.353C95.9953 132.558 95.0912 134.922 94.1871 137.629C93.283 140.336 92.2885 142.837 91.9872 143.214C91.505 143.831 90.9927 143.865 82.2229 143.865C74.8696 143.865 72.8806 143.762 72.4285 143.385C72.1272 143.145 71.0423 140.507 70.0477 137.56L68.2094 132.181L64.6834 130.845C62.7246 130.091 59.6506 128.652 57.8424 127.624L54.5274 125.74L50.0672 128.001C47.6261 129.269 45.2454 130.262 44.7632 130.262C44.0399 130.262 42.8344 129.063 37.4099 122.862C31.9551 116.694 30.9004 115.324 30.9004 114.502C30.9004 113.988 31.8045 111.247 32.8894 108.471L34.8784 103.4L33.4318 100.077C32.6483 98.2609 31.6839 95.8283 31.2921 94.6976C30.9004 93.5669 30.4182 92.4705 30.2675 92.2307C30.0867 92.0251 26.621 89.661 22.5525 87.0227C17.9718 84.0076 14.7472 81.6777 14.054 80.8554C12.7883 79.3136 12.1856 77.2235 12.4568 75.3048C12.5773 74.551 14.0842 71.159 15.8924 67.5614C17.9718 63.4498 19.0266 61.0514 18.8156 60.8801C18.6348 60.7773 14.7472 58.2076 10.1965 55.1925C0.974761 49.1279 0.28162 48.477 0.0405273 45.2905C-0.140292 43.2347 0.19121 42.2411 2.96377 36.9646C4.89251 33.23 5.16374 32.8531 6.64043 32.0308C8.47876 30.9686 9.89518 30.9001 11.5828 31.7909C12.6376 32.3391 26.1991 41.1104 27.8264 42.3096C28.399 42.7551 28.5798 42.5495 30.4784 38.7806L32.5277 34.7718L31.5935 32.2706C30.7497 29.9407 30.7195 29.7009 31.1113 28.6387C31.6538 27.1654 43.2563 14.1113 44.281 13.8372C45.1248 13.5973 46.0892 14.0085 51.2727 16.6467L54.5274 18.3256L57.9328 16.4069C59.8013 15.3447 62.8752 13.8714 64.7738 13.1862L68.2395 11.8842L70.0176 6.60769C70.982 3.69534 72.0368 1.0571 72.3683 0.714473C72.8806 0.200529 73.8751 0.132003 81.7106 0.0292146C90.9324 -0.0735741 91.8063 0.0292146 92.4091 1.43399C92.62 1.84515 93.494 4.34634 94.3679 6.98458L95.9953 11.7814L99.2501 13.0491C101.028 13.7344 104.042 15.1392 105.94 16.2013C107.839 17.2635 109.557 18.12 109.768 18.12C109.979 18.12 112.088 17.1264 114.499 15.8929C116.88 14.6937 119.17 13.6658 119.592 13.6658C120.647 13.6658 133.455 28.1933 133.455 29.3925C133.455 29.8379 132.581 32.4762 131.496 35.2857C130.411 38.061 129.537 40.4937 129.537 40.6993C129.537 40.8706 130.291 42.7551 131.195 44.9136C132.129 47.0379 133.365 50.4642 133.998 52.52L135.113 56.2546L139.482 58.1734C141.893 59.2355 144.063 60.2634 144.334 60.4347C145.419 61.1885 145.51 62.1136 145.51 72.2554L145.51 82.2602L144.636 83.2538C144.154 83.802 143.521 84.2474 143.28 84.2474C142.586 84.2474 142.677 84.4873 144.033 86.2347C146.806 89.8323 149.036 95.4514 149.759 100.694C150.964 109.499 147.68 119.059 139.211 131.53C136.499 135.505 126.674 148.456 125.71 149.347C124.836 150.135 124.233 150.203 123.329 149.587ZM128.663 137.355C138.096 124.917 142.014 118.27 144.184 111.144C144.937 108.745 145.027 107.923 145.027 104.463C144.997 101.173 144.877 100.077 144.214 97.7813C143.129 94.0123 141.532 91.0657 139 88.2219C136.499 85.3438 133.907 83.5279 130.592 82.2944C127.217 81.0267 122.033 80.9582 118.688 82.1574C114.921 83.4594 112.48 85.1383 109.768 88.1877C107.779 90.449 107.086 91.5454 105.91 94.1837C102.836 101.31 102.866 107.718 106.031 115.29C107.417 118.579 111.365 125.397 114.198 129.406C117.664 134.306 124.233 142.837 124.444 142.768C124.565 142.7 126.463 140.267 128.663 137.355ZM90.3899 133.517C91.294 130.845 92.2282 128.378 92.4693 128.035C92.7406 127.659 94.0967 127.008 95.6337 126.528C97.1405 126.048 99.6418 125.02 101.239 124.266L104.132 122.93L102.414 119.093C100.757 115.461 99.3706 111.075 98.9487 108.129C98.8282 107.272 98.6172 106.861 98.4062 106.998C95.9953 108.231 92.3488 109.739 90.3296 110.356C88.1297 111.041 87.0448 111.11 82.0722 111.11C76.8285 111.11 76.1052 111.041 73.3929 110.184C62.7246 106.929 54.6178 98.8777 50.1275 87.0912C49.4042 85.2753 49.0727 84.6928 48.8617 85.0012C48.6809 85.241 47.2344 88.0849 45.6371 91.2713C44.0098 94.492 42.4125 97.3701 42.081 97.7127C41.2673 98.5008 39.8811 98.4665 38.6455 97.5757C38.0729 97.1988 37.6208 96.9932 37.6208 97.1303C37.6208 97.2673 38.1633 98.5008 38.8263 99.8713C39.4893 101.242 40.0317 102.681 40.0317 103.058C40.0317 103.469 39.1578 106.039 38.0729 108.814L36.0838 113.851L40.7249 119.127L45.3358 124.369L49.8261 122.142C52.2672 120.909 54.5274 119.881 54.8589 119.881C55.1603 119.881 56.3657 120.498 57.5411 121.251C60.9766 123.478 64.8643 125.294 69.1436 126.699C70.319 127.11 71.4943 127.693 71.7354 128.001C72.0066 128.344 72.9107 130.708 73.7847 133.243C74.6285 135.779 75.412 137.972 75.4723 138.109C75.5627 138.28 78.5764 138.383 82.1928 138.383L88.7625 138.383L90.3899 133.517ZM87.0448 105.456C89.9981 104.908 94.3077 103.195 96.7789 101.516L99.009 100.043L99.5213 97.7127C100.787 91.9908 104.373 85.6865 108.412 82.0889C109.587 81.061 110.672 80.1359 110.853 80.0673C111.757 79.7247 112.209 69.9598 111.486 65.9168C109.617 55.4323 103.861 46.6953 95.7542 41.9327C86.4119 36.4507 74.8997 37.0331 66.1903 43.406C65.2259 44.0913 64.4423 44.7766 64.4423 44.9136C64.4423 45.0164 64.9245 45.4276 65.4971 45.8044C66.582 46.5582 67.0341 47.6889 66.793 49.0594C66.7026 49.5048 63.5081 56.0833 59.6506 63.6897L52.6288 77.4976L53.2617 80.4442C53.5932 82.0546 54.4973 84.8642 55.2507 86.6116C59.4095 96.3765 66.8231 102.989 76.2257 105.319C78.5462 105.867 84.3325 105.97 87.0448 105.456ZM41.6591 88.0506C42.6235 86.1319 43.3769 84.5215 43.3166 84.453C43.2563 84.4187 40.5139 82.6371 37.2592 80.5128C34.0044 78.3885 31.1113 76.3327 30.8099 75.9901C30.0264 75.0307 30.2072 73.249 31.1415 72.3582C31.5634 71.9128 32.2264 71.5701 32.588 71.5701C32.9798 71.5701 36.114 73.4203 39.5495 75.6817C43.0153 77.943 45.8782 79.759 45.9084 79.7247C45.9686 79.6562 46.6919 78.1829 47.5659 76.4355C48.922 73.7287 49.1028 73.1805 48.7412 72.8036C48.5001 72.5638 45.7878 70.7136 42.6536 68.6578C39.5495 66.6363 36.8071 64.649 36.566 64.2721C35.6619 62.7646 36.1743 60.9486 37.7112 60.2977C38.7961 59.818 38.9468 59.8865 45.7275 64.3407C48.922 66.4307 51.574 68.1439 51.6343 68.1439C51.8151 68.1439 55.1603 61.5996 55.0397 61.4969C54.9795 61.4283 52.659 59.8865 49.8261 58.0363C43.0153 53.6164 42.4728 53.2052 42.1112 52.1431C41.7495 51.0467 42.2317 49.4363 43.0755 48.9566C44.2207 48.2371 45.3056 48.7168 51.1521 52.5542C54.437 54.7128 57.2698 56.4945 57.4205 56.4945C57.8726 56.4945 61.2479 49.6419 60.9465 49.2993C60.3739 48.6825 39.1276 34.9088 38.7359 34.9088C38.4948 34.9088 38.103 35.1829 37.8619 35.5256C37.44 36.0738 18.7252 72.8036 17.6101 75.2705C17.3088 75.9558 17.1882 76.5725 17.369 76.8809C17.6704 77.4976 39.1276 91.751 39.5797 91.6482C39.7605 91.5797 40.6947 89.9693 41.6591 88.0506ZM139.603 79.9646L140.688 79.4506L140.628 72.0156L140.537 64.5805L135.896 62.4905C130.592 60.1606 131.195 60.8801 129.387 54.473C128.422 50.9781 126.494 46.0786 125.017 43.3033C123.962 41.2817 123.992 41.0076 126.072 35.5598L128.091 30.3519L123.45 25.0754L118.779 19.7646L114.65 21.8547C112.39 23.0196 110.22 24.0132 109.858 24.116C109.436 24.2531 108.623 23.979 107.688 23.3965C103.469 20.8268 100.666 19.422 97.5624 18.2913C91.957 16.2356 92.4995 16.7495 90.8118 11.7471C90.0283 9.31446 89.1845 6.91606 88.9434 6.36785L88.5215 5.44275L82.0421 5.51128L75.5326 5.61407L73.8751 10.5822C72.971 13.3232 71.9765 15.8244 71.7053 16.1328C71.434 16.4754 70.0477 17.0921 68.6313 17.5718C64.9547 18.771 61.7602 20.2786 58.2041 22.4372C56.5164 23.465 54.9493 24.2873 54.7685 24.2873C54.5877 24.2873 52.3877 23.2595 49.9165 21.9917L45.396 19.7304L41.0564 24.6642L36.7167 29.5981L38.766 29.5981L40.7851 29.5981L50.0371 35.6969C55.1301 39.0204 59.5 41.7614 59.741 41.7614C59.9821 41.7614 60.2835 41.5901 60.404 41.3845C60.826 40.5965 66.13 36.9304 68.3601 35.9025C73.9052 33.2642 79.9024 32.1678 85.2968 32.8188C93.4639 33.8124 100.245 37.3415 105.91 43.5431C109.075 47.0037 111.033 49.916 112.781 53.7534C115.614 60.0236 116.699 65.0945 116.699 72.3582C116.729 76.2642 116.79 77.0179 117.151 76.8809C117.392 76.7781 118.809 76.4355 120.316 76.1614C125.469 75.1335 131.135 76.1271 135.866 78.9024C137.282 79.7247 138.458 80.4442 138.458 80.4442C138.488 80.4785 139 80.2387 139.603 79.9646ZM23.8183 51.9032C24.9635 49.6762 25.8676 47.7232 25.8073 47.5519C25.6566 47.0379 9.50341 36.5877 9.05136 36.6905C8.35822 36.8618 4.62128 44.5025 4.95279 45.0849C5.28429 45.6674 21.0758 56.1518 21.4676 56.0148C21.6183 55.9805 22.6731 54.1303 23.8183 51.9032Z" fill="rgb(255,255,255)" fill-rule="nonzero" transform="matrix(1,0,0,-1,0,150)" />
		<path id="Vector 87" d="M28.4489 32.0015C27.7558 31.6247 24.6818 28.3697 21.2463 24.4294L15.2491 17.5769L12.6875 20.4892C9.61356 23.8812 8.7396 24.4637 6.47936 24.4637C2.95338 24.4637 0 21.2087 0 17.3028C0 14.8016 0.602731 13.8079 5.99718 7.5721C8.92042 4.18007 11.8437 1.13068 12.5067 0.719521C14.134 -0.23984 16.6052 -0.23984 18.2628 0.719521C19.9504 1.74741 36.3748 20.7633 37.0981 22.5792C38.3337 25.6286 37.3091 29.7745 34.868 31.5904C33.2105 32.8581 30.227 33.0294 28.4489 32.0015ZM32.6379 26.4852C32.7886 26.1769 32.8489 25.5601 32.7584 25.1147C32.5475 24.1553 16.0025 5.27649 15.3696 5.27649C14.8573 5.27649 5.18349 16.1721 4.9424 17.0287C4.7013 17.8852 5.63554 18.9816 6.56977 18.9816C7.14237 18.9816 8.25742 17.9538 10.8793 14.9729C13.9834 11.4781 14.556 10.9984 15.3998 11.0327C16.2737 11.0669 17.2381 12.0263 23.4764 19.153C29.8051 26.3482 30.679 27.2047 31.4626 27.1362C31.9448 27.0677 32.4571 26.7936 32.6379 26.4852Z" fill="rgb(255,255,255)" fill-rule="nonzero" transform="matrix(1,0,0,-1,63.2368,94.3279)" />
	</g>
</svg>
