<svg viewBox="0 0 688 178.351" xmlns="http://www.w3.org/2000/svg" xmlns:xlink="http://www.w3.org/1999/xlink" width="688.000000" height="178.350525" fill="none" customFrame="#000000">
	<path id="Vector 33" d="M45.4145 0.00812532C47.0842 0.00484591 47.0842 0.00484591 48.7876 0.00150023C52.5258 -0.00352385 56.2637 0.00499298 60.0019 0.013418C62.7055 0.0125919 65.4092 0.0109331 68.1129 0.00851213C75.549 0.0042692 82.9849 0.0118632 90.4209 0.0213551C98.4373 0.0295262 106.454 0.0267694 114.47 0.0253298C128.361 0.0243355 142.252 0.0302219 156.143 0.0409387C170.712 0.0521497 185.281 0.0594429 199.85 0.0615024C200.756 0.0616326 201.662 0.0617629 202.595 0.0618971C207.196 0.0625381 211.796 0.0631092 216.396 0.0636533C248.98 0.0676332 281.564 0.0803994 314.149 0.0983327C345.804 0.115735 377.459 0.129157 409.115 0.13719C410.578 0.137564 410.578 0.137564 412.071 0.137946C421.87 0.140444 431.669 0.142861 441.467 0.145219C461.429 0.150025 481.39 0.155371 501.351 0.161043C502.269 0.161303 503.186 0.161563 504.132 0.161831C565.421 0.179265 626.711 0.209327 688 0.241274C687.015 3.27516 685.678 5.3676 683.23 7.97189C682.152 9.12699 682.151 9.12699 681.052 10.3054C679.873 11.5502 679.873 11.5502 678.671 12.8201C677.853 13.6928 677.036 14.5655 676.193 15.4646C673.563 18.2687 670.923 21.0678 668.282 23.8668C666.571 25.6891 664.861 27.5117 663.151 29.3347C656.271 36.6637 649.374 43.9844 642.436 51.2861C641.586 52.1819 640.736 53.0777 639.861 54.0007C638.257 55.6904 636.65 57.3788 635.04 59.0657C630.953 63.3721 627.115 67.7063 623.561 72.2429C633.078 83.3421 642.653 94.4125 652.424 105.402C660.063 113.993 667.591 122.629 675.039 131.303C675.762 132.144 676.484 132.986 677.229 133.853C677.911 134.649 678.593 135.445 679.296 136.266C681.746 139.088 684.274 141.872 686.833 144.646C688 146.139 688 146.139 688 148.034C686.618 148.035 685.237 148.036 683.813 148.037C622.921 148.078 562.029 148.122 501.138 148.185C500.216 148.186 499.294 148.187 498.344 148.188C478.309 148.208 458.273 148.229 438.238 148.251C428.413 148.262 418.587 148.272 408.762 148.283C407.784 148.284 406.807 148.285 405.799 148.286C374.109 148.32 342.418 148.344 310.728 148.364C278.161 148.385 245.595 148.414 213.028 148.456C208.428 148.461 203.829 148.467 199.229 148.473C198.323 148.474 197.418 148.475 196.485 148.476C181.913 148.494 167.34 148.502 152.768 148.506C138.117 148.511 123.466 148.526 108.815 148.551C100.877 148.564 92.9396 148.573 85.0017 148.569C77.7348 148.566 70.4681 148.576 63.2013 148.596C60.5722 148.601 57.943 148.601 55.3139 148.596C51.7384 148.59 48.1639 148.601 44.5886 148.617C43.5692 148.611 42.5499 148.605 41.4997 148.599C32.567 148.671 24.1821 149.918 17.0963 153.896C8.67237 161.327 3.72005 168.847 1.99345 178.351C1.55043 178.351 1.10741 178.351 0.65097 178.351C0.525425 158.116 0.430786 137.882 0.372748 117.648C0.345078 108.252 0.307371 98.8568 0.245866 89.4613C0.192279 81.2704 0.157685 73.0795 0.145727 64.8885C0.138737 60.5531 0.12236 56.2178 0.0832136 51.8824C0.0466281 47.7976 0.0355459 43.7131 0.0435963 39.6282C0.0421215 38.1331 0.0315207 36.638 0.0108466 35.1429C-0.119179 25.2495 0.777928 16.8349 10.5675 9.15636C20.8163 2.83438 31.918 -0.0572418 45.4145 0.00812532Z" fill="rgb(51,90,64)" fill-rule="nonzero" />
</svg>
