<svg viewBox="0 0 150 150" xmlns="http://www.w3.org/2000/svg" xmlns:xlink="http://www.w3.org/1999/xlink" width="150.000000" height="150.000000" fill="none">
	<defs>
		<clipPath id="clipPath_0">
			<rect width="131.721191" height="135.044373" x="-0.107422" y="-0.395752" fill="rgb(255,255,255)" />
		</clipPath>
	</defs>
	<rect id="wrench 1" width="150.000000" height="150.000000" x="0.000000" y="0.000000" />
	<g id="Frame 53" customFrame="url(#clipPath_0)">
		<rect id="Frame 53" width="131.721191" height="135.044373" x="-0.107422" y="-0.395752" />
		<path id="Vector 86" d="M38.3637 4.87115C43.0755 8.74069 46.2187 14.3371 47.0032 20.4903C47.0734 21.477 47.0889 22.4566 47.0835 23.4457C47.083 23.7076 47.0825 23.9695 47.0819 24.2394C47.0573 26.1054 46.8546 27.8325 46.4263 29.6437C46.3624 29.9173 46.2985 30.1909 46.2327 30.4728C46.132 30.7576 46.0314 31.0424 45.9277 31.3358C46.0096 32.9956 47.2568 33.8389 48.3999 34.9223C48.6338 35.152 48.8677 35.3818 49.1087 35.6185C49.6868 36.185 50.2691 36.746 50.856 37.3029C51.7212 36.8842 52.3126 36.4046 53.0071 35.7268C54.5565 34.3067 55.7995 34.0282 57.8541 34.0654C59.3733 34.2483 60.4521 35.0695 61.6436 35.9895C61.8311 35.7894 62.0187 35.5894 62.2118 35.3833C62.9177 34.6326 63.6288 33.8873 64.3416 33.1435C64.6477 32.8226 64.9523 32.5003 65.2554 32.1766C67.6576 29.6135 69.9628 27.5953 73.6032 27.5011C76.0975 27.5229 78.3125 28.4309 80.1358 30.1752C82.158 32.308 82.838 34.6403 82.9621 37.5656C83.1363 37.5724 83.3104 37.5792 83.4899 37.5862C86.3326 37.7633 88.279 38.5626 90.3586 40.5826C91.9703 42.4648 92.5096 44.457 92.4977 46.9078C92.4986 47.1128 92.4997 47.3179 92.5007 47.5291C92.4981 49.0578 92.4981 49.0578 92.2087 49.6497C92.5319 49.6605 92.855 49.6714 93.188 49.6825C95.5777 49.9669 97.472 51.3476 98.9751 53.2125C100.353 55.2863 100.725 57.441 100.685 59.8949C100.84 59.8986 100.996 59.9023 101.156 59.9062C103.612 60.0491 105.562 60.9575 107.242 62.8102C108.932 65.0483 109.088 67.4028 108.904 70.1401C108.128 74.064 103.834 77.1959 101.182 79.8927C100.785 80.2983 100.387 80.704 99.9889 81.1097C99.0229 82.0949 98.0562 83.0792 97.0889 84.063C97.7509 85.4742 98.6391 86.5934 99.9142 87.4781C100.856 87.5578 101.604 87.2799 102.483 86.9527C108.4 85.2627 114.811 86.2846 120.145 89.2777C121.575 90.1178 122.838 91.0761 124.058 92.2066C124.271 92.4003 124.484 92.594 124.704 92.7936C128.79 96.7164 131.385 102.37 131.578 108.089C131.589 108.716 131.597 109.344 131.603 109.972C131.607 110.269 131.61 110.566 131.614 110.873C131.597 113.814 131.211 116.753 129.195 119.002C128.054 119.746 126.906 119.724 125.599 119.527C123.662 118.586 122.194 116.917 120.727 115.363C120.366 114.987 120.005 114.611 119.643 114.235C118.762 113.318 117.885 112.396 117.009 111.474C116.514 110.953 116.018 110.434 115.52 109.917C115.053 109.433 114.59 108.946 114.129 108.456C112.665 106.94 111.301 105.854 109.216 105.474C107.748 105.512 106.655 105.788 105.308 106.392C105.054 106.479 104.799 106.566 104.537 106.655C103.513 108.371 103.141 110.291 103.301 112.272C103.991 114.543 105.732 116.111 107.356 117.721C107.605 117.972 107.854 118.223 108.103 118.474C109.02 119.399 109.94 120.32 110.861 121.24C111.643 122.02 112.422 122.802 113.198 123.587C113.56 123.952 113.924 124.313 114.289 124.673C115.773 126.174 116.952 127.472 117.252 129.657C117.061 130.998 116.659 131.901 115.666 132.779C111.967 135.228 106.408 134.856 102.294 133.984C96.4877 132.619 91.4671 128.993 88.069 123.979C86.4911 121.38 86.4911 121.38 86.8149 119.79C87.1038 119.166 87.1038 119.166 87.5854 118.739C88.4646 118.446 88.9132 118.375 89.7586 118.778C90.5226 119.348 90.8825 119.902 91.374 120.726C94.271 125.326 98.2053 128.368 103.424 129.644C106.191 130.236 109.876 130.589 112.5 129.247C111.559 128.278 110.617 127.31 109.675 126.343C109.354 126.014 109.034 125.684 108.714 125.355C108.254 124.881 107.793 124.409 107.333 123.937C107.189 123.788 107.046 123.64 106.898 123.488C106.173 122.727 106.173 122.727 105.308 122.154C105.308 121.981 105.308 121.807 105.308 121.629C105.164 121.567 105.021 121.505 104.873 121.441C102.305 119.976 100.343 116.976 99.3373 114.203C98.4944 111.077 98.8658 108.21 100.359 105.39C101.532 103.325 103.315 102.216 105.501 101.434C108.252 100.697 110.962 100.975 113.527 102.189C115.729 103.569 117.523 105.38 119.32 107.252C119.757 107.707 120.197 108.159 120.637 108.611C121.96 109.974 123.251 111.347 124.471 112.808C124.933 113.344 125.434 113.813 125.968 114.273C126.143 114.425 126.317 114.577 126.497 114.733C126.625 114.841 126.752 114.95 126.883 115.061C127.721 109.158 127.29 103.656 123.88 98.6632C123.444 98.0683 122.991 97.4993 122.517 96.9352C122.389 96.7794 122.261 96.6236 122.13 96.4631C119.92 93.987 116.858 92.4322 113.784 91.4185C113.612 91.3572 113.44 91.2959 113.263 91.2328C109.33 90.0092 104.992 90.6215 101.289 92.2261C100.258 92.5174 99.3943 92.5034 98.3731 92.2066C97.6424 91.6263 97.6424 91.6263 96.9795 90.8685C96.7299 90.5951 96.4803 90.3218 96.2305 90.0486C95.848 89.6183 95.4678 89.186 95.0898 88.7514C93.3743 86.7004 93.3743 86.7004 90.9506 85.8732C90.5137 85.8789 90.0769 85.8879 89.6402 85.9019C87.2234 85.2562 85.6297 83.911 84.3126 81.7634C83.3447 79.9956 83.3542 78.1602 83.4758 76.1821C83.5606 75.922 83.6454 75.662 83.7327 75.394C83.4572 75.3832 83.1817 75.3723 82.8979 75.3612C80.5064 75.0402 78.4564 73.7247 76.9573 71.8281C75.8428 70.1225 75.4705 68.4688 75.2567 66.4623C74.9587 66.4715 74.6607 66.4806 74.3537 66.49C69.3434 66.6001 65.5308 65.0847 61.3868 62.2592C61.2934 62.6686 61.2934 62.6686 61.1982 63.0862C61.1113 63.4564 61.0244 63.8265 60.9373 64.1965C60.8969 64.375 60.8565 64.5535 60.8149 64.7373C60.5594 65.8126 60.2335 66.8236 59.8254 67.8493C59.733 68.0825 59.6405 68.3157 59.5453 68.556C59.4397 68.82 59.4397 68.82 59.332 69.0893C63.1268 72.9766 66.9223 76.8632 70.7187 80.7488C72.4814 82.553 74.2439 84.3575 76.0058 86.1625C77.5416 87.7359 79.0778 89.3087 80.6145 90.881C81.4281 91.7135 82.2415 92.5462 83.0544 93.3795C83.8197 94.164 84.5856 94.948 85.352 95.7314C85.633 96.0188 85.9137 96.3064 86.1941 96.5943C86.5777 96.988 86.9622 97.3808 87.3468 97.7735C87.5615 97.9933 87.7763 98.2132 87.9975 98.4397C88.6078 99.0502 88.6078 99.0502 89.302 99.5918C89.8971 100.088 89.8971 100.088 90.4108 100.876C90.5288 102.275 90.2562 103.403 89.7847 104.701C89.0453 106.783 88.8119 108.697 88.7819 110.902C88.7309 112.179 88.4778 112.852 87.5854 113.748C86.693 114.132 86.3729 114.04 85.4664 113.666C84.7601 113.222 84.7601 113.222 84.5032 112.697C84.3316 109.931 84.4395 107.363 85.1877 104.69C85.5737 103.296 85.5737 103.296 85.2738 101.926C84.7873 101.271 84.2398 100.698 83.6685 100.12C83.5211 99.9612 83.3738 99.802 83.222 99.6381C82.4044 98.7507 82.4044 98.7507 81.2976 98.5011C81.0841 98.5912 80.8705 98.6812 80.6505 98.774C80.3615 98.8743 80.0724 98.9745 79.7746 99.0778C79.465 99.1943 79.1554 99.3108 78.8365 99.4308C76.3008 100.383 76.3008 100.383 74.9697 100.385C74.6722 100.386 74.6722 100.386 74.3687 100.386C74.0613 100.385 74.0613 100.385 73.7477 100.383C73.4432 100.385 73.4432 100.385 73.1326 100.386C72.0104 100.384 70.9693 100.297 69.8628 100.088C69.2921 100.02 68.7189 99.9712 68.1451 99.9398C67.8581 99.9178 67.571 99.8957 67.2753 99.8731C64.6349 100.138 62.2513 103.274 60.4597 105.097C60.1868 105.373 59.9138 105.649 59.6408 105.925C59.0747 106.498 58.5104 107.073 57.9469 107.648C57.2249 108.385 56.4971 109.116 55.7678 109.846C55.2046 110.411 54.6455 110.98 54.0875 111.551C53.8207 111.822 53.5524 112.092 53.2825 112.361C52.9077 112.735 52.539 113.115 52.1706 113.495C51.9595 113.71 51.7484 113.924 51.531 114.144C51.0301 114.784 51.0301 114.784 51.1713 115.621C51.2368 115.869 51.3022 116.118 51.3697 116.375C51.4106 116.883 51.4373 117.392 51.4499 117.902C51.4643 118.278 51.4643 118.278 51.479 118.662C51.1523 121.247 49.6082 122.84 47.8601 124.614C47.6141 124.867 47.3684 125.12 47.1228 125.374C46.6098 125.901 46.0944 126.427 45.5774 126.95C44.9197 127.617 44.2686 128.29 43.6192 128.965C43.1138 129.489 42.6047 130.009 42.0946 130.528C41.7371 130.893 41.3828 131.261 41.0286 131.629C39.3423 133.323 37.5191 134.653 35.0597 134.649C32.357 134.483 30.5611 132.85 28.7439 130.944C28.5264 130.722 28.3088 130.499 28.0848 130.27C27.4951 129.665 26.9083 129.057 26.3228 128.448C25.7074 127.809 25.0882 127.174 24.4693 126.539C23.3004 125.338 22.1347 124.134 20.9702 122.929C19.2577 121.156 17.5405 119.388 15.8231 117.621C15.5698 117.36 15.3164 117.099 15.0631 116.838C14.9394 116.711 14.8157 116.584 14.6883 116.453C13.835 115.574 12.9832 114.694 12.132 113.813C11.6885 113.355 11.245 112.898 10.8015 112.44C10.4969 112.124 10.4969 112.124 10.1862 111.801C10.0012 111.61 9.81613 111.42 9.62551 111.223C9.46453 111.057 9.30356 110.89 9.1377 110.718C8.7451 110.308 8.7451 110.308 8.21899 110.07C8.21899 109.897 8.21899 109.723 8.21899 109.545C8.0678 109.475 7.91661 109.405 7.76085 109.333C6.78753 108.796 6.07335 107.976 5.29733 107.18C5.12478 107.004 4.95224 106.827 4.77447 106.645C3.02901 104.817 1.64989 103.045 1.47669 100.432C1.54748 96.8847 4.06339 94.8405 6.3478 92.4816C6.55702 92.2655 6.76624 92.0494 6.98181 91.8268C7.42156 91.3734 7.86169 90.9204 8.3022 90.4678C8.75041 90.0063 9.19747 89.5437 9.64338 89.0799C10.2921 88.4052 10.9442 87.734 11.5972 87.0635C11.893 86.754 11.893 86.754 12.1949 86.4382C13.8131 84.7897 15.3261 83.73 17.636 83.516C18.3025 83.54 18.8243 83.7114 19.4587 83.9163C20.253 84.0842 20.6401 84.1489 21.3691 83.7682C21.9501 83.2701 22.4624 82.7426 22.9788 82.1749C23.1737 81.973 23.3686 81.771 23.5694 81.563C24.1911 80.9147 24.8011 80.2562 25.4118 79.5972C25.821 79.1696 26.2309 78.7427 26.6414 78.3165C31.8024 72.9142 36.4883 67.3835 36.5953 59.5146C36.6327 58.0997 36.77 57.0048 37.3189 55.7071C37.6221 54.8283 37.6467 53.9739 37.4998 53.0648C37.1124 52.4218 36.797 51.9845 36.2978 51.4537C36.1734 51.3155 36.0489 51.1773 35.9206 51.0349C35.5236 50.603 35.1176 50.1826 34.7066 49.7646C34.5716 49.6259 34.4366 49.4872 34.2976 49.3443C33.0354 48.0666 33.0354 48.0666 31.5923 47.0227C30.656 47.0388 30.656 47.0388 29.7943 47.2854C29.5298 47.3508 29.2652 47.4161 28.9927 47.4835C28.7116 47.5536 28.4305 47.6237 28.1409 47.6959C21.9585 49.0499 15.5275 47.9301 10.2096 44.445C5.15283 40.8295 1.29375 35.5511 0.120206 29.2568C-0.077777 27.6887 -0.0833187 26.1083 -0.0965108 24.5293C-0.101911 24.0832 -0.101911 24.0832 -0.107422 23.6281C-0.0902675 20.534 0.364792 17.5477 2.53619 15.2528C3.69328 14.6611 4.94692 14.5432 6.18272 14.9631C8.26036 16.1099 9.96772 18.3163 11.5982 20.0357C12.0344 20.4904 12.4709 20.9448 12.9075 21.399C13.584 22.1039 14.2592 22.8098 14.9311 23.5192C15.5877 24.2116 16.2492 24.8987 16.9117 25.5852C17.1095 25.7965 17.3073 26.0077 17.5111 26.2254C19.0388 27.7956 20.6568 28.8436 22.8594 29.028C24.4151 28.9342 25.9253 28.3323 27.0814 27.2712C28.1143 25.3695 28.5327 23.6841 27.9964 21.5411C27.1108 19.6374 25.8647 18.1615 24.4015 16.7017C24.1119 16.4068 24.1119 16.4068 23.8164 16.1059C23.2055 15.4852 22.591 14.8683 21.9765 14.2513C21.5654 13.8339 21.1545 13.4162 20.7439 12.9983C20.3473 12.5962 19.9505 12.1943 19.5535 11.7926C19.3709 11.6079 19.1884 11.4231 19.0004 11.2328C18.0419 10.271 17.0677 9.34933 16.0321 8.47472C14.9714 7.511 14.4418 6.21995 14.2549 4.81061C14.4582 3.43332 14.8694 2.52377 15.9405 1.65824C22.353 -2.65398 32.842 0.504703 38.3637 4.87115ZM19.2635 4.72851C19.1819 5.52226 19.1819 5.52226 19.6627 6.01256C19.8497 6.1989 20.0367 6.38523 20.2293 6.57721C20.4403 6.78956 20.6513 7.00192 20.8687 7.22071C21.2154 7.56426 21.2154 7.56426 21.5691 7.91474C21.9295 8.27783 22.2899 8.64092 22.6501 9.0042C23.5392 9.89946 24.4326 10.7903 25.3259 11.6811C25.826 12.18 26.3246 12.6804 26.8219 13.1823C27.2896 13.654 27.7594 14.1235 28.2318 14.5903C30.7492 17.1343 32.2854 19.7761 32.3869 23.4672C32.2709 25.9682 31.7228 28.3173 30.0512 30.2101C30.0512 30.3835 30.0512 30.5569 30.0512 30.7355C29.9065 30.8087 29.7618 30.8818 29.6127 30.9572C29.22 31.1597 28.83 31.3677 28.4429 31.5811C25.7514 33.035 23.1591 33.5338 20.1625 32.8043C17.4022 31.9207 15.517 30.2021 13.5326 28.1106C13.2901 27.8593 13.0474 27.6083 12.8044 27.3576C12.1724 26.7043 11.5433 26.048 10.9151 25.3909C9.90328 24.3332 8.8878 23.2792 7.87075 22.2268C7.51694 21.8596 7.16497 21.4905 6.81302 21.1214C6.60023 20.9003 6.38744 20.6792 6.1682 20.4515C5.98089 20.2556 5.79357 20.0596 5.60058 19.8578C5.17563 19.3816 5.17563 19.3816 4.6231 19.4395C3.1741 24.4605 4.06687 29.7827 6.42706 34.3384C7.23887 35.7184 8.17236 36.916 9.24638 38.091C9.52599 38.3983 9.52599 38.3983 9.81125 38.7119C13.5678 42.4887 18.5154 44.0321 23.6773 43.997C26.1551 43.9171 28.5987 43.4536 30.8217 42.2942C31.7024 42.1383 32.3174 42.0775 33.0729 42.6191C34.5056 43.9513 35.8807 45.3364 37.243 46.7436C37.4664 46.9734 37.6899 47.2031 37.9202 47.4399C38.4656 48.0008 39.0104 48.5622 39.5546 49.1243C40.2886 48.7835 40.8158 48.4246 41.3824 47.8399C41.5314 47.6875 41.6805 47.535 41.8341 47.3779C41.9917 47.2139 42.1493 47.05 42.3117 46.8811C42.4756 46.7128 42.6395 46.5444 42.8083 46.371C43.3303 45.8342 43.8504 45.2956 44.3705 44.757C44.7246 44.3922 45.0788 44.0276 45.433 43.6631C46.3003 42.7703 47.1659 41.876 48.0306 40.9807C47.6251 39.9337 46.907 39.2731 46.1183 38.522C45.8388 38.2479 45.5596 37.9736 45.2805 37.699C44.842 37.27 44.4021 36.8428 43.958 36.4197C43.5282 36.0088 43.1053 35.5915 42.6829 35.1726C42.5497 35.0489 42.4165 34.9251 42.2792 34.7976C41.5524 34.0653 41.2695 33.5429 41.2565 32.5207C41.3424 31.6292 41.4639 31.0417 41.8341 30.243C43.6414 25.8906 43.3639 20.6216 41.6532 16.2706C39.5984 11.3785 36.2303 7.89499 31.52 5.64077C27.6616 4.07801 23.2941 3.50708 19.2635 4.72851ZM67.4228 36.0551C67.1354 36.3543 66.8478 36.6533 66.5599 36.952C65.8601 37.6792 65.1637 38.4096 64.469 39.1418C65.7801 40.7656 67.2129 42.2412 68.6749 43.7226C68.9129 43.9649 69.151 44.2072 69.3963 44.4568C69.9793 45.05 70.5629 45.6426 71.1471 46.2346C72.651 44.9521 74.0569 43.5868 75.4493 42.1793C75.6675 41.9637 75.8857 41.7482 76.1105 41.5261C77.5894 40.029 78.4729 38.9582 78.7081 36.794C78.6477 35.4083 78.1202 34.236 77.2021 33.2199C75.9779 32.1166 74.8627 31.6424 73.2206 31.7102C70.7388 32.0648 69.0687 34.3187 67.4228 36.0551ZM55.5621 39.112C55.385 39.281 55.208 39.4499 55.0256 39.624C54.8363 39.8116 54.6469 39.9993 54.4519 40.1926C54.2522 40.3866 54.0526 40.5806 53.8469 40.7804C52.4042 42.1925 50.9862 43.6309 49.5672 45.0677C49.0477 45.5931 48.5258 46.1159 48.0017 46.6364C47.3607 47.2731 46.7245 47.9144 46.0911 48.5591C45.7385 48.9156 45.3816 49.2676 45.0246 49.6195C41.9703 52.7531 40.8167 56.2339 40.7425 60.5845C40.4263 70.1198 34.072 76.6448 27.8037 82.9794C27.4217 83.3675 27.0398 83.7557 26.658 84.1441C25.7356 85.0817 24.8117 86.0177 23.8868 86.9527C24.8932 88.1958 25.9496 89.3403 27.0954 90.4488C27.4067 90.7562 27.7177 91.0639 28.0285 91.3718C28.5114 91.8495 28.9956 92.3253 29.4846 92.7965C29.9612 93.2569 30.4309 93.7237 30.9 94.1922C31.1203 94.4 31.1203 94.4 31.345 94.612C32.1077 95.3864 32.4532 95.8869 32.4713 97.0081C32.3628 97.986 32.3628 97.986 32.0899 98.5113C31.2427 98.9586 30.7376 98.9322 29.7943 98.774C29.3195 98.4281 29.3195 98.4281 28.8308 97.9729C28.6512 97.8057 28.4716 97.6385 28.2866 97.4662C27.4175 96.6226 26.5748 95.7556 25.7389 94.8777C25.3665 94.4909 24.9939 94.1042 24.6212 93.7176C24.0424 93.1158 23.4643 92.5132 22.8882 91.9086C22.3265 91.3197 21.7615 90.7342 21.1959 90.1492C21.0249 89.968 20.8539 89.7869 20.6777 89.6003C19.4098 88.291 19.4098 88.291 17.7224 87.7408C16.1007 88.2307 14.9602 89.6501 13.7924 90.8398C13.5672 91.0675 13.3419 91.2953 13.1098 91.5299C12.6354 92.0112 12.1621 92.4935 11.6896 92.9768C10.9661 93.715 10.2367 94.4468 9.50674 95.1784C9.04601 95.6473 8.58564 96.1166 8.12568 96.5863C7.90711 96.8042 7.68854 97.022 7.46334 97.2465C6.61141 98.1282 5.99276 98.8249 5.5279 99.978C5.83364 102.217 8.56358 104.155 10.0729 105.695C10.3331 105.962 10.5931 106.228 10.8531 106.495C11.5535 107.212 12.2546 107.929 12.956 108.645C13.6914 109.397 14.4262 110.149 15.1611 110.901C16.3932 112.162 17.6259 113.422 18.8589 114.682C20.285 116.139 21.7101 117.597 23.1348 119.055C24.3598 120.31 25.5854 121.563 26.8113 122.816C27.5428 123.564 28.2742 124.312 29.0051 125.06C29.6908 125.762 30.377 126.464 31.0638 127.165C31.3161 127.422 31.5681 127.68 31.8199 127.938C32.1626 128.29 32.5062 128.64 32.8499 128.99C33.0422 129.187 33.2345 129.383 33.4326 129.586C34.0032 130.13 34.3239 130.279 35.0918 130.429C36.0376 130.286 36.2227 130.139 36.9054 129.506C37.086 129.338 37.2666 129.171 37.4527 128.998C38.3755 128.111 39.2773 127.204 40.1716 126.286C40.3677 126.086 40.5637 125.886 40.7656 125.68C41.1758 125.26 41.5857 124.841 41.9952 124.421C42.6243 123.776 43.2548 123.132 43.8854 122.489C44.285 122.08 44.6845 121.671 45.0839 121.262C45.3672 120.973 45.3672 120.973 45.6562 120.679C45.8295 120.5 46.0029 120.322 46.1815 120.139C46.3344 119.982 46.4873 119.826 46.6449 119.664C47.1262 119.127 47.2544 118.769 47.3885 118.049C47.0826 115.938 44.6049 114.156 43.1696 112.709C42.7329 112.266 42.2963 111.823 41.8597 111.379C41.1776 110.688 40.4951 109.998 39.8119 109.308C39.1481 108.637 38.4859 107.964 37.8239 107.291C37.6187 107.085 37.4135 106.879 37.2021 106.666C37.0125 106.473 36.8229 106.28 36.6276 106.081C36.3774 105.828 36.3774 105.828 36.1221 105.57C35.3837 104.707 35.1776 104.236 35.2363 103.076C35.445 102.189 35.445 102.189 36.2156 101.664C37.0183 101.494 37.0183 101.494 38.0135 101.664C38.8808 102.293 39.5907 103.063 40.3241 103.847C40.5382 104.069 40.7523 104.291 40.9729 104.519C41.655 105.227 42.3305 105.941 43.006 106.655C43.4676 107.136 43.9296 107.617 44.3921 108.098C45.5241 109.276 46.6509 110.459 47.7738 111.646C48.7108 111.243 49.2995 110.67 50.0088 109.933C50.2473 109.686 50.4857 109.44 50.7314 109.186C50.8578 109.054 50.9843 108.922 51.1145 108.786C51.5132 108.371 51.9136 107.957 52.3145 107.543C53.4539 106.367 54.59 105.188 55.7252 104.009C56.4209 103.286 57.1184 102.565 57.8172 101.845C58.0811 101.573 58.3442 101.299 58.6065 101.025C63.4821 95.9284 63.4821 95.9284 66.6201 95.7982C67.0161 95.8009 67.4121 95.8078 67.808 95.8187C68.104 95.8207 68.104 95.8207 68.406 95.8228C69.5979 95.8394 70.7375 95.966 71.9176 96.1471C74.2815 96.3186 76.1754 96.1078 78.3389 95.0963C77.9864 94.288 77.585 93.7348 76.9735 93.1113C76.7978 92.9308 76.622 92.7504 76.4409 92.5644C76.2483 92.3692 76.0555 92.174 75.857 91.9729C75.654 91.7652 75.451 91.5575 75.2419 91.3435C74.5704 90.6572 73.8972 89.9727 73.2239 89.2882C72.7581 88.8128 72.2924 88.3372 71.8268 87.8615C70.7262 86.7376 69.6244 85.6149 68.5221 84.4928C67.2669 83.215 66.0133 81.9356 64.7597 80.6562C62.1816 78.0248 59.6016 75.3953 57.0204 72.767C56.3738 73.0723 56.0052 73.2783 55.5274 73.8343C54.7546 74.5343 54.1873 74.5873 53.1676 74.6059C52.5415 74.3596 52.5415 74.3596 52.1402 73.8178C51.9119 72.9004 51.8645 72.592 52.1402 71.7163C52.6227 71.0434 53.1389 70.4222 53.6825 69.8005C55.912 67.2218 57.217 63.8189 57.1107 60.3587C56.8981 58.6489 56.3159 57.1056 55.2866 55.741C54.6496 54.818 54.5373 54.4291 54.7087 53.3275C55.2224 52.5394 55.2224 52.5394 56.0572 52.2931C57.4699 52.269 58.1957 52.9733 59.1981 53.9439C59.4038 54.1672 59.6096 54.3904 59.8216 54.6204C60.0532 54.8673 60.2849 55.1142 60.5235 55.3686C60.6435 55.4968 60.7635 55.6251 60.8871 55.7572C62.9843 57.9847 64.9565 60.0302 67.808 61.2084C68.0832 61.3242 68.3583 61.44 68.6418 61.5593C70.9126 62.3902 73.6268 62.8648 75.9148 61.8487C76.9281 61.2314 77.4711 60.3848 78.082 59.3695C76.0387 56.9687 73.8491 54.7205 71.6568 52.4634C71.4621 52.263 71.2675 52.0625 71.0669 51.856C70.0404 50.7991 69.0129 49.7431 67.9849 48.6878C67.1356 47.8157 66.2882 46.9417 65.4425 46.066C64.4167 45.004 63.388 43.9452 62.3568 42.8888C61.9654 42.4866 61.575 42.0834 61.1858 41.679C60.6436 41.1162 60.0976 40.5577 59.5505 40.0001C59.3906 39.8323 59.2307 39.6644 59.066 39.4915C58.2108 38.6161 58.2108 38.6161 57.0978 38.2034C56.3983 38.3813 56.0845 38.6062 55.5621 39.112ZM80.3896 43.0125C80.0431 43.3725 79.7015 43.7373 79.3642 44.1064C78.8842 44.6243 78.3891 45.0841 77.8573 45.5451C76.5796 46.667 75.4083 47.8961 74.2293 49.1243C75.4114 50.5771 76.672 51.9169 77.9857 53.2454C78.1784 53.4413 78.3711 53.6372 78.5696 53.839C78.9274 54.2026 79.2854 54.566 79.6438 54.929C80.152 55.4445 80.6584 55.9618 81.1642 56.4798C82.0671 55.576 82.9673 54.6695 83.8653 53.7605C84.1708 53.452 84.477 53.1442 84.7839 52.8372C85.2263 52.3943 85.6661 51.9489 86.1055 51.5029C86.242 51.3674 86.3785 51.2319 86.5191 51.0923C87.5257 50.0633 88.2535 49.068 88.4583 47.6056C88.4442 45.9281 88.3645 44.7248 87.1971 43.4445C85.2297 41.5589 82.5331 41.1261 80.3896 43.0125ZM86.4406 56.7323C86.1826 56.9956 86.1826 56.9956 85.9194 57.2642C85.5589 57.6334 85.1995 58.0039 84.8414 58.3757C84.2948 58.9424 83.7435 59.504 83.1914 60.0652C82.8401 60.4261 82.4891 60.7873 82.1384 61.1489C81.8928 61.3989 81.8928 61.3989 81.6422 61.654C80.3626 62.9907 79.5255 64.2536 79.3492 66.1781C79.3966 67.6975 80.1134 69.0944 81.1642 70.1401C82.3579 70.9864 83.4534 71.3077 84.8965 71.3304C86.8191 70.9073 88.1573 69.7101 89.5008 68.3115C89.6728 68.1359 89.8448 67.9604 90.022 67.7795C90.3825 67.4103 90.7419 67.0398 91.1 66.6681C91.6466 66.1013 92.1979 65.5397 92.75 64.9785C93.1013 64.6176 93.4523 64.2564 93.803 63.8949C93.9667 63.7282 94.1305 63.5615 94.2992 63.3897C95.6317 61.9977 96.4512 60.6512 96.6073 58.6789C96.54 57.3746 96.0265 56.2416 95.1805 55.27C93.8861 54.1004 92.7412 53.8012 91.072 53.7318C89.1332 54.0868 87.7791 55.3388 86.4406 56.7323ZM95.7424 67.4464C95.5242 67.6692 95.306 67.892 95.0811 68.1216C94.6227 68.5908 94.1656 69.0614 93.7097 69.5332C93.0114 70.255 92.3084 70.9717 91.6047 71.688C91.159 72.1456 90.7135 72.6034 90.2683 73.0615C89.9533 73.3826 89.9533 73.3826 89.6319 73.7101C89.438 73.9117 89.2441 74.1134 89.0444 74.3211C88.8738 74.497 88.7031 74.6729 88.5274 74.8542C87.7009 75.896 87.4642 76.9299 87.5062 78.2693C87.7091 79.6516 88.3578 80.4445 89.4155 81.2883C90.539 81.8591 91.7578 81.9613 92.9793 81.6987C94.4599 80.8283 95.5895 79.6305 96.7879 78.3986C97.0011 78.181 97.2143 77.9634 97.434 77.7392C97.8828 77.2806 98.3309 76.8213 98.7784 76.3614C99.4641 75.6573 100.153 74.956 100.841 74.255C101.278 73.8084 101.714 73.3617 102.15 72.9148C102.356 72.7052 102.562 72.4955 102.774 72.2795C102.964 72.0832 103.155 71.8868 103.351 71.6844C103.518 71.5126 103.686 71.3408 103.859 71.1637C104.808 70.0423 104.907 69.081 104.876 67.6362C104.718 66.3826 104.023 65.6883 103.205 64.804C100.173 62.9433 97.8369 65.2743 95.7424 67.4464Z" fill="rgb(255,255,255)" fill-rule="nonzero" />
	</g>
</svg>
