<svg viewBox="0 0 150 150" xmlns="http://www.w3.org/2000/svg" xmlns:xlink="http://www.w3.org/1999/xlink" width="150.000000" height="150.000000" fill="none">
	<defs>
		<clipPath id="clipPath_1">
			<rect width="134.335938" height="132.009216" x="-0.131348" y="-0.082581" fill="rgb(255,255,255)" />
		</clipPath>
	</defs>
	<rect id="repair 1" width="150.000000" height="150.000000" x="0.000000" y="0.000000" />
	<g id="Frame 49" customFrame="url(#clipPath_1)">
		<rect id="Frame 49" width="134.335938" height="132.009216" x="-0.131348" y="-0.082581" />
		<path id="Vector 80" d="M62.6965 -0.0643373C62.8885 -0.0663273 63.0805 -0.0683172 63.2784 -0.0703675C64.4602 -0.0662117 65.3699 0.120242 66.4923 0.514565C67.429 0.436552 68.2196 0.291734 69.1101 -1.48267e-05C69.8386 -0.0316573 70.5577 -0.0476484 71.2862 -0.0482567C71.4817 -0.0514075 71.6773 -0.0545583 71.8788 -0.0578045C73.0783 -0.0609097 73.9919 0.110979 75.1311 0.514565C76.0677 0.436552 76.8584 0.291734 77.7489 -1.48267e-05C80.5968 -0.180505 82.9373 -0.221061 85.2679 1.57991C86.3184 2.16571 87.122 2.13481 88.2855 2.0583C91.3495 1.97097 93.0312 2.78354 95.28 4.85734C95.8117 5.40307 95.8117 5.40307 96.3353 6.17494C96.8881 6.38075 96.8881 6.38075 97.5296 6.51264C99.9222 7.17093 101.601 8.46076 102.88 10.5489C103.318 11.3807 103.632 12.2058 103.845 13.1218C104.285 14.1098 104.914 14.542 105.75 15.2173C107.233 16.5459 108.027 18.3176 108.203 20.2666C108.211 20.6133 108.214 20.9601 108.214 21.3068C108.213 21.4883 108.213 21.6699 108.212 21.8569C108.168 23.7289 107.659 24.9801 106.508 26.4395C105.905 27.4717 105.946 28.0724 106.021 29.2506C106.104 31.8656 105.566 33.6464 103.78 35.6507C103.148 36.3051 102.598 36.8053 101.833 37.307C101.574 37.9683 101.574 37.9683 101.375 38.7382C100.579 41.1921 99.2854 42.717 96.9887 43.9574C95.7266 44.53 94.5942 44.7684 93.1939 44.7684C93.2 45.0052 93.206 45.242 93.2123 45.486C93.3017 51.6463 91.7565 57.0939 87.3253 61.6249C86.1976 62.661 85.1173 63.4203 83.7534 64.1295C82.8103 64.6791 82.5164 64.8961 82.2216 65.9496C82.1568 66.7918 82.1437 67.5968 82.1991 68.4391C82.4637 68.4626 82.7282 68.4862 83.0008 68.5105C84.7698 68.7278 86.4921 69.1928 88.2201 69.613C88.5762 69.6987 88.9324 69.7843 89.2887 69.8698C90.1544 70.0779 91.0198 70.2872 91.885 70.4974C92.0342 70.2999 92.1835 70.1023 92.3372 69.8988C93.4303 68.6349 94.7577 68.035 96.4237 67.8027C97.3795 67.7523 98.3233 67.7489 99.2803 67.7637C99.7672 67.7562 99.7672 67.7562 100.264 67.7486C102.89 67.7625 102.89 67.7625 103.89 68.5778C104.075 68.7867 104.26 68.9957 104.45 69.211C104.581 69.1199 104.713 69.0288 104.848 68.9349C107.139 67.5687 109.471 67.7467 112.06 67.7717C112.545 67.7722 113.029 67.7722 113.513 67.7717C114.524 67.7721 115.535 67.7769 116.546 67.7851C117.837 67.7953 119.129 67.7964 120.42 67.7945C121.419 67.7937 122.417 67.7968 123.416 67.8012C123.892 67.803 124.368 67.8038 124.844 67.8036C125.51 67.804 126.177 67.8096 126.843 67.8165C127.037 67.8157 127.231 67.815 127.431 67.8142C129.249 67.843 131.007 68.3213 132.363 69.5757C134.354 71.8314 134.226 74.3699 134.188 77.1971C134.179 77.9233 134.182 78.6487 134.188 79.3749C134.185 82.9806 133.7 85.839 131.414 88.765C131.299 88.9232 131.184 89.0814 131.065 89.2444C129.219 91.6022 126.291 92.9002 123.4 93.55C122.111 93.7005 120.832 93.6802 119.536 93.6696C118.618 93.6643 117.7 93.659 116.754 93.6535C116.754 96.3705 116.754 99.0875 116.754 101.887C117.618 101.972 118.482 102.057 119.372 102.144C121.886 103.013 123.591 104.498 124.869 106.775C125.55 108.465 125.49 110.134 125.49 111.922C125.491 112.495 125.501 113.068 125.51 113.641C125.533 116.337 125.257 118.634 123.282 120.669C123.106 120.855 122.931 121.04 122.749 121.232C122.251 121.698 122.251 121.698 121.466 122.213C121.378 122.941 121.338 123.616 121.332 124.345C121.325 124.661 121.325 124.661 121.318 124.983C121.304 125.657 121.295 126.331 121.286 127.005C121.277 127.461 121.268 127.917 121.259 128.374C121.237 129.493 121.219 130.613 121.204 131.732C109.386 131.768 97.5667 131.795 85.7478 131.811C84.352 131.813 82.9561 131.815 81.5603 131.817C81.2824 131.818 81.0045 131.818 80.7182 131.818C76.2208 131.825 71.7235 131.837 67.2261 131.852C62.6102 131.866 57.9943 131.875 53.3784 131.878C50.5309 131.88 47.6835 131.886 44.8361 131.899C42.8825 131.907 40.929 131.91 38.9755 131.908C37.8489 131.907 36.7225 131.908 35.596 131.916C34.563 131.924 33.5303 131.924 32.4973 131.919C32.1252 131.918 31.753 131.92 31.381 131.925C28.4145 131.962 26.0897 131.313 23.8385 129.352C22.1154 127.464 21.5194 125.487 21.4662 122.985C21.2742 122.956 21.0821 122.928 20.8843 122.898C18.963 122.447 17.3072 120.973 16.2306 119.382C15.0245 117.175 14.8741 115.229 14.8726 112.757C14.8678 112.353 14.8678 112.353 14.8629 111.941C14.8572 108.958 15.343 106.515 17.4525 104.248C18.4924 103.319 20.0061 102.144 21.4662 102.144C21.4619 100.469 21.4475 98.794 21.4262 97.1189C21.4202 96.55 21.4164 95.981 21.415 95.4121C21.4125 94.5905 21.4018 93.7694 21.3895 92.948C21.3905 92.6967 21.3915 92.4455 21.3926 92.1867C21.3502 90.193 20.8231 88.4739 19.4284 86.9773C17.7193 85.4005 15.8973 85.3456 13.6547 85.3408C13.0955 85.3344 12.5363 85.3278 11.9772 85.3212C11.1006 85.3138 10.224 85.3077 9.3474 85.3028C8.49798 85.2972 7.6487 85.2871 6.79933 85.2765C6.53886 85.2765 6.27839 85.2764 6.01003 85.2764C3.91115 85.2472 2.3406 84.8478 0.785546 83.3619C-0.308254 81.9162 -0.20614 80.193 0.000205427 78.4734C0.324283 77.1684 1.04906 76.5877 2.16296 75.8482C3.24476 75.2069 4.36446 74.6473 5.49759 74.0995C5.67618 74.0119 5.85478 73.9243 6.03879 73.8341C11.6293 71.133 17.6735 69.3624 23.8222 68.4391C24.1231 68.391 24.424 68.3429 24.734 68.2934C28.4786 67.7714 32.2374 67.8679 36.0113 67.8923C36.7099 67.8952 37.4085 67.8973 38.1071 67.8994C39.8027 67.905 41.4983 67.9136 43.1939 67.9245C43.242 67.4414 43.242 67.4414 43.2911 66.9486C43.4109 65.7447 43.8451 65.1493 44.7646 64.3225C46.4543 63.5404 47.9026 63.4319 49.7548 63.4541C50.0047 63.4511 50.2545 63.4481 50.512 63.4451C52.4117 63.4528 53.7134 63.6946 55.1867 64.9496C56.0762 65.9737 56.3518 66.6382 56.3156 67.9888C56.3109 68.2183 56.3062 68.4479 56.3013 68.6843C56.2952 68.8581 56.2892 69.0319 56.2829 69.211C56.4975 69.1552 56.7121 69.0995 56.9333 69.0421C57.3564 68.9347 57.3564 68.9347 57.7881 68.825C58.2073 68.7176 58.2073 68.7176 58.6348 68.6079C59.4243 68.4391 59.4243 68.4391 60.4714 68.4391C60.5661 67.2643 60.5441 66.2313 60.2096 65.0943C59.5028 64.4167 58.7799 63.9973 57.9231 63.5174C54.0907 61.3592 51.5734 57.2755 50.263 53.2248C49.4963 50.4054 49.4383 47.6742 49.4766 44.7684C49.1419 44.7525 48.8071 44.7366 48.4622 44.7202C46.3148 44.4871 44.1502 43.3667 42.7951 41.7071C42.0494 40.6882 41.5723 39.8213 41.296 38.5935C40.916 37.1356 40.0119 36.5129 38.8612 35.5834C37.6486 34.4638 36.9895 32.977 36.6494 31.3894C36.668 30.4766 36.6937 29.5668 36.7517 28.6556C36.7819 27.6053 36.7315 26.9822 36.0205 26.1682C35.7961 25.9383 35.5717 25.7085 35.3405 25.4717C34.1819 23.4546 34.2216 20.7486 34.727 18.549C35.3834 16.747 36.5449 15.2618 38.1546 14.1831C38.9408 13.4533 39.032 12.7563 39.304 11.7479C40.0277 9.54605 41.6216 8.00444 43.6796 6.95686C44.3811 6.64945 45.0632 6.42393 45.8117 6.25535C46.8171 5.82301 47.2568 5.20362 47.9448 4.38296C49.1593 3.07096 50.6153 2.44766 52.3562 2.0583C53.0514 2.06106 53.7258 2.08216 54.4177 2.12263C56.0586 2.17563 57.1139 1.97065 58.3792 0.90251C59.6908 -0.0731994 61.1236 -0.0806387 62.6965 -0.0643373ZM59.3588 6.0463C58.9074 6.59013 58.5128 7.13283 58.1154 7.71868C57.2559 7.45084 56.4696 7.16718 55.6612 6.76993C54.5217 6.36444 53.7701 6.35282 52.618 6.68952C51.3628 7.33006 50.6711 8.04135 50.0002 9.26242C49.9014 9.77498 49.8123 10.2896 49.7384 10.8062C49.3973 10.7882 49.3972 10.7882 49.0492 10.77C47.1684 10.6951 47.1684 10.6951 45.4027 11.2403C43.9341 12.5935 43.9341 12.5935 43.4301 14.4183C43.4332 14.7227 43.4362 15.0272 43.4393 15.3409C43.4417 15.6467 43.444 15.9525 43.4465 16.2675C43.4495 16.503 43.4526 16.7385 43.4557 16.9811C43.0923 17.0314 43.0923 17.0314 42.7215 17.0826C41.379 17.3326 40.5898 17.9529 39.709 18.959C39.0108 20.306 38.8028 21.492 39.2672 22.947C40.1191 24.1244 41.193 24.9325 42.4086 25.729C42.2332 26.539 41.9328 27.2171 41.5741 27.9642C41.0685 29.1735 41.0769 29.9566 41.4208 31.2054C41.5899 31.698 41.5899 31.698 42.1468 31.9039C42.2517 31.7517 42.3567 31.5995 42.4648 31.4426C44.337 28.8848 46.3993 28.1595 49.4766 27.53C49.5151 27.2381 49.5536 26.9463 49.5932 26.6456C50.181 22.6178 50.181 22.6178 51.8326 21.0978C52.0432 20.9014 52.2538 20.7051 52.4707 20.5028C54.3731 19.2715 56.1029 18.9778 58.3772 19.2967C60.2319 19.8903 61.7185 20.9567 63.2528 22.1108C63.6761 22.4242 64.0994 22.7374 64.5228 23.0505C64.7236 23.1994 64.9243 23.3483 65.1311 23.5017C65.4162 23.7127 65.4162 23.7127 65.707 23.9279C65.8812 24.057 66.0553 24.1861 66.2348 24.319C67.2994 25.0904 68.0254 25.4717 69.3719 25.4717C70.3075 25.063 70.6313 24.7728 71.2044 23.9279C71.3353 23.2957 71.3353 23.2957 71.2044 22.6415C70.7148 22.0641 70.3172 21.691 69.6337 21.355C69.1868 21.337 68.7393 21.3333 68.2921 21.339C67.8709 21.3443 67.4498 21.3496 67.0159 21.355C67.0159 19.9117 67.0159 18.4683 67.0159 16.9811C72.0894 17.1171 72.0894 17.1171 74.1821 19.1198C74.6075 19.8113 74.6075 19.8113 74.9204 20.7812C75.706 22.3288 77.3606 22.7512 78.9164 23.3158C79.4448 23.5078 79.968 23.7102 80.4914 23.9149C83.4869 25.0869 83.4869 25.0869 86.6494 25.4717C87.5609 25.0472 87.9156 24.7627 88.4818 23.9279C88.4637 22.9287 88.4463 22.3492 87.7129 21.6284C86.545 21.2302 85.5267 21.3066 84.2934 21.355C84.2934 19.9117 84.2934 18.4683 84.2934 16.9811C89.3425 17.1165 89.3425 17.1165 91.3277 18.9862C93.3521 21.3767 93.071 24.5828 93.1939 27.53C93.493 27.5912 93.493 27.5912 93.7982 27.6536C96.6191 28.2801 98.4905 29.1231 100.262 31.3894C100.435 31.5592 100.608 31.729 100.786 31.9039C101.538 30.5676 101.65 29.797 101.245 28.321C101.048 27.7363 101.048 27.7363 100.606 27.0637C100.262 26.5008 100.262 26.5008 100.246 25.9702C100.668 25.2124 101.365 24.9114 102.094 24.4425C103.189 23.4144 103.617 22.6171 103.699 21.1591C103.635 20.063 103.284 19.2111 102.523 18.4032C101.51 17.5212 100.573 16.9811 99.2148 16.9811C99.227 16.7576 99.2391 16.534 99.2516 16.3037C99.3278 14.4552 99.3278 14.4552 98.7731 12.7198C98.0304 11.9503 97.3054 11.2829 96.3353 10.8062C95.9926 10.8106 95.9926 10.8106 95.643 10.8152C94.7644 10.8227 94.0402 10.7875 93.1939 10.5489C92.6867 9.92853 92.4389 9.34627 92.1478 8.60613C91.705 7.54448 90.9457 7.15298 89.9707 6.60912C88.2877 6.18595 86.9744 6.69838 85.5399 7.52772C85.0787 7.71868 85.0787 7.71868 84.2934 7.46139C84.1368 7.2279 83.9802 6.99441 83.8189 6.75384C83.0464 5.62581 82.2326 4.81369 80.8902 4.37391C79.07 4.23889 77.9837 4.71908 76.6036 5.83725C76.3768 6.03359 76.15 6.22994 75.9164 6.43223C75.012 6.04112 74.2633 5.49926 73.4776 4.91965C72.4923 4.27486 71.5671 4.29741 70.419 4.37391C69.1685 4.85048 68.2719 5.57139 67.2777 6.43223C66.3733 6.04112 65.6245 5.49926 64.8388 4.91965C62.8728 3.63295 60.7753 4.45185 59.3588 6.0463ZM54.7122 24.4425C54.0273 25.4523 54.1114 26.3126 54.1126 27.4845C54.1109 27.7168 54.1091 27.9492 54.1073 28.1885C54.1023 28.9593 54.1013 29.7301 54.1007 30.5009C54.099 31.0386 54.0973 31.5762 54.0954 32.1139C54.0923 33.2438 54.0913 34.3737 54.0917 35.5036C54.0917 36.9422 54.0846 38.3807 54.0755 39.8192C54.0697 40.9318 54.0687 42.0443 54.0689 43.1569C54.0683 43.6865 54.066 44.2162 54.062 44.7458C54.0265 49.8259 54.677 54.2466 58.3352 58.1616C59.5524 59.2389 60.9417 60.0904 62.3039 60.9777C62.5979 61.2021 62.5979 61.2021 62.898 61.431C63.3291 61.7995 63.3291 61.7995 63.8745 61.7496C63.9555 61.9512 64.0365 62.1529 64.1199 62.3606C64.3794 63.0163 64.3794 63.0163 64.6599 63.5506C64.6879 64.0807 64.7006 64.6117 64.7059 65.1426C64.7152 65.6276 64.7153 65.6276 64.7248 66.1225C64.7369 66.8013 64.7442 67.4797 64.7493 68.1587C64.8012 70.4869 65.0448 72.4497 66.5578 74.3085C68.3846 75.7367 69.8559 76.6049 72.2515 76.4151C74.6534 75.7364 75.9135 74.6006 77.2212 72.5467C77.7746 71.4944 77.7861 70.4976 77.8041 69.3245C77.8115 68.997 77.8189 68.6695 77.8266 68.3321C77.8374 67.8144 77.847 67.2967 77.8539 66.779C77.8612 66.2766 77.8735 65.7744 77.8859 65.2722C77.8911 64.9729 77.8963 64.6736 77.9016 64.3652C78.0203 63.4787 78.2973 62.9998 78.796 62.2641C78.796 62.0943 78.796 61.9245 78.796 61.7496C79.0121 61.6481 79.0121 61.6481 79.2326 61.5445C83.1917 59.537 86.1646 56.7976 87.7609 52.6439C87.8261 52.4224 87.8912 52.2008 87.9583 51.9725C88.0477 51.6718 88.1371 51.3711 88.2292 51.0613C88.6674 49.0907 88.5459 47.0471 88.533 45.0408C88.532 44.5942 88.5313 44.1475 88.5307 43.7009C88.5287 42.5322 88.5236 41.3636 88.5178 40.1949C88.5124 38.9996 88.51 37.8043 88.5074 36.609C88.5018 34.2688 88.4929 31.9286 88.4818 29.5883C88.2153 29.5911 87.9487 29.5939 87.6741 29.5968C87.3192 29.5991 86.9644 29.6013 86.6095 29.6034C86.4344 29.6054 86.2593 29.6074 86.079 29.6095C83.0066 29.6234 80.3924 28.4514 77.6118 27.2853C77.3705 27.1847 77.1293 27.084 76.8807 26.9802C76.555 26.8421 76.5549 26.8421 76.2226 26.7012C75.632 26.4574 75.632 26.4574 74.8693 26.5008C74.4526 26.9234 74.4526 26.9234 74.0512 27.4657C72.8196 28.885 71.6861 29.4897 69.7891 29.6758C66.4667 29.763 64.6777 28.7527 62.1402 26.7742C58.6804 23.6105 58.6804 23.6105 54.7122 24.4425ZM93.1939 31.9039C93.1939 34.6209 93.1939 37.3379 93.1939 40.1372C94.8932 39.8589 95.4771 39.5269 96.597 38.3362C97.2296 37.3089 97.336 36.1665 97.1206 34.9914C96.5546 33.7041 95.8451 32.7219 94.5028 32.1612C94.0709 32.0763 93.6389 31.9914 93.1939 31.9039ZM46.6461 33.3029C45.7011 34.391 45.4383 35.0585 45.4855 36.5301C45.6376 37.7571 46.2014 38.4619 47.0715 39.3171C47.9584 40.0003 47.9584 40.0003 49.4766 40.1372C49.4766 37.4202 49.4766 34.7032 49.4766 31.9039C48.4264 31.9039 47.3936 32.6662 46.6461 33.3029ZM47.6442 68.1818C47.6442 73.7007 47.6442 79.2195 47.6442 84.9056C49.0264 84.9056 50.4086 84.9056 51.8326 84.9056C51.8326 79.3868 51.8326 73.8679 51.8326 68.1818C50.4505 68.1818 49.0683 68.1818 47.6442 68.1818ZM21.957 73.3437C21.6879 73.3981 21.4188 73.4524 21.1415 73.5084C16.5166 74.4964 12.1126 76.0546 7.83724 78.0392C7.41661 78.2335 7.41661 78.2335 6.98748 78.4317C6.60177 78.618 6.60177 78.618 6.20828 78.8081C5.98183 78.9173 5.75538 79.0265 5.52206 79.139C4.90074 79.5512 4.75471 79.874 4.45047 80.5317C4.79087 80.5355 5.13127 80.5392 5.48199 80.5431C6.75837 80.5581 8.03463 80.578 9.31091 80.5992C9.86078 80.6077 10.4107 80.615 10.9606 80.6208C18.3084 80.7016 18.3084 80.7016 20.8117 82.3488C21.6547 82.8979 21.6547 82.8979 22.5542 83.3448C23.1728 83.6965 23.2807 84.0091 23.5604 84.6484C23.8197 85.068 24.0816 85.486 24.3457 85.9026C25.8228 88.3186 25.9472 90.6913 25.9993 93.4445C26.0047 93.6871 26.0101 93.9298 26.0157 94.1798C26.0327 94.9477 26.0482 95.7157 26.0637 96.4837C26.075 97.0073 26.0864 97.5309 26.0979 98.0546C26.1258 99.3319 26.1524 100.609 26.1782 101.887C26.3783 101.937 26.5784 101.986 26.7845 102.038C27.1763 102.138 27.1763 102.138 27.5761 102.241C27.9653 102.339 27.9653 102.339 28.3624 102.44C29.0578 102.659 29.0578 102.659 29.7286 103.173C30.3592 103.511 30.3592 103.511 30.97 103.201C31.4214 102.972 31.8668 102.731 32.3045 102.478C33.0605 102.107 33.7238 102.007 34.5552 101.887C34.5561 101.732 34.5571 101.577 34.5581 101.417C34.5691 99.7935 34.5873 98.1698 34.6095 96.5459C34.6168 95.9413 34.6224 95.3367 34.6261 94.7321C34.6318 93.8589 34.644 92.9859 34.6574 92.1128C34.6577 91.846 34.6581 91.5792 34.6584 91.3043C34.725 87.985 35.962 85.4989 38.351 83.2011C39.529 82.3327 39.529 82.3327 43.1939 80.789C43.1939 77.9871 43.1939 75.1852 43.1939 72.2984C41.505 72.2865 39.8163 72.2763 38.1274 72.2702C37.5555 72.2676 36.9836 72.2641 36.4117 72.2596C31.5532 72.2223 26.7315 72.3791 21.957 73.3437ZM95.8117 72.813C95.0219 73.8228 95.0219 73.8228 95.2881 76.4151C106.605 76.4151 117.922 76.4151 129.581 76.4151C129.809 74.0539 129.809 74.0539 129.09 73.0542C128.144 72.2061 127.513 72.2572 126.248 72.2325C125.976 72.2268 125.976 72.2268 125.698 72.2211C124.01 72.1885 122.322 72.1709 120.634 72.1573C119.503 72.1482 118.373 72.1346 117.242 72.1096C110.687 71.8029 110.687 71.8029 104.736 74.1383C103.927 74.6141 103.927 74.6141 103.187 74.5858C102.462 74.2941 102.191 73.9202 101.718 73.3115C101.004 72.5615 100.654 72.3204 99.6106 72.1447C97.6157 72.093 97.6157 72.093 95.8117 72.813ZM58.0663 73.4402C57.7872 73.5088 57.5081 73.5775 57.2206 73.6482C56.5684 73.7776 56.5684 73.7776 56.2829 74.0995C56.255 74.4703 56.2446 74.8424 56.2416 75.2142C56.2376 75.5699 56.2376 75.5699 56.2335 75.9327C56.2316 76.1911 56.2297 76.4494 56.2277 76.7156C56.2203 77.2588 56.2128 77.802 56.2052 78.3453C56.1944 79.2046 56.1848 80.0639 56.1778 80.9232C56.1706 81.7506 56.1586 82.5778 56.1459 83.4051C56.145 83.6609 56.1442 83.9166 56.1433 84.1801C56.1186 85.5542 56.0303 86.5541 55.2358 87.7358C53.4998 89.2756 52.0689 89.086 49.8039 89.1027C49.3027 89.1139 49.3027 89.1139 48.7915 89.1253C45.7199 89.1458 45.7199 89.1458 44.5028 87.9931C43.9092 87.2205 43.505 86.5947 43.1939 85.6775C41.7865 85.9474 41.1272 86.6052 40.2131 87.6172C39.0236 89.4006 38.8949 91.0254 38.9287 93.0987C38.9298 93.3585 38.931 93.6183 38.9321 93.8859C38.9365 94.7091 38.9463 95.532 38.9563 96.355C38.9603 96.9159 38.9639 97.4767 38.9671 98.0375C38.9757 99.4064 38.9888 100.775 39.0054 102.144C39.2201 102.244 39.4347 102.344 39.6558 102.447C39.9379 102.582 40.22 102.716 40.5107 102.855C40.7901 102.987 41.0695 103.118 41.3574 103.254C43.446 104.401 44.5115 106.367 45.1787 108.563C45.6854 111.006 45.1237 113.184 43.9138 115.332C42.7058 117.106 40.9004 117.939 39.0054 118.868C38.9997 119.117 38.9997 119.117 38.9939 119.37C38.9741 120.136 38.9489 120.901 38.9236 121.666C38.9177 121.927 38.9118 122.187 38.9057 122.456C38.8918 122.844 38.8918 122.844 38.8776 123.24C38.8708 123.474 38.8639 123.709 38.8568 123.95C38.6992 125.114 38.3014 126.234 37.9583 127.358C53.94 127.358 69.9216 127.358 86.3876 127.358C86.3876 124.557 86.3876 121.755 86.3876 118.868C87.7698 118.868 89.152 118.868 90.5761 118.868C90.5761 104.434 90.5761 90 90.5761 75.1286C88.8913 74.5767 87.2508 74.078 85.5368 73.6492C85.3087 73.5892 85.0806 73.5292 84.8456 73.4673C83.2465 73.0153 83.2465 73.0153 81.6756 73.3276C81.2292 73.9724 81.2292 73.9724 80.9066 74.7749C79.7274 77.2513 78.4055 78.5216 75.9164 79.7598C75.6512 79.8922 75.6512 79.8922 75.3806 80.0272C73.0598 80.9732 69.9053 80.8963 67.5395 80.1136C64.0847 78.6371 62.2676 76.3993 60.7332 73.0703C59.748 73.0703 59.0141 73.203 58.0663 73.4402ZM95.2881 80.789C95.2881 93.355 95.2881 105.921 95.2881 118.868C99.5211 118.868 103.754 118.868 108.115 118.868C108.084 115.343 108.084 115.343 108.045 111.818C108.042 111.37 108.04 110.923 108.039 110.476C108.035 110.25 108.031 110.024 108.026 109.792C108.026 107.614 108.443 105.362 109.948 103.688C110.725 103.263 111.503 102.839 112.304 102.401C112.304 97.9863 112.304 93.5712 112.304 89.0223C117.376 89.0866 117.376 89.0866 118.96 89.115C122.209 89.1493 124.605 88.9208 127.047 86.6313C127.192 86.4864 127.338 86.3414 127.487 86.1921C127.681 86.0011 127.876 85.81 128.076 85.6132C129.05 84.1095 129.581 82.5672 129.581 80.789C118.265 80.789 106.948 80.789 95.2881 80.789ZM20.7299 107.66C19.3974 109.194 19.5463 110.583 19.5519 112.532C19.5477 112.821 19.5435 113.111 19.5391 113.409C19.5327 115.477 19.5327 115.477 20.419 117.324C21.7859 118.564 22.7468 118.94 24.6075 118.932C25.0854 118.934 25.0854 118.934 25.5728 118.936C26.3903 118.872 26.8321 118.824 27.4871 118.353C28.1729 117.385 28.0953 116.32 28.0986 115.186C28.1004 114.98 28.1021 114.773 28.1039 114.56C28.1065 114.123 28.1078 113.687 28.1077 113.25C28.1088 112.584 28.1183 111.918 28.1283 111.251C28.1298 110.826 28.1308 110.401 28.1313 109.976C28.1351 109.778 28.1389 109.58 28.1427 109.375C28.1345 108.422 28.0449 107.859 27.5287 107.042C26.4916 106.081 25.3813 106.19 24.0287 106.205C22.6458 106.31 21.7881 106.758 20.7299 107.66ZM32.9845 107.033C32.2957 108.16 32.3742 109.209 32.3791 110.49C32.3749 110.708 32.3707 110.925 32.3663 111.15C32.3654 112.386 32.4169 113.239 33.2463 114.237C34.6104 114.907 37.1688 114.697 38.6056 114.327C39.7319 113.758 40.4518 112.829 40.8379 111.664C41.1079 110.249 41.0104 109.157 40.1834 107.949C39.1096 106.731 38.0515 106.346 36.4449 106.19C35.1121 106.145 34.0226 106.111 32.9845 107.033ZM113.089 107.033C112.422 108.016 112.476 108.832 112.468 109.973C112.466 110.186 112.464 110.399 112.461 110.618C112.458 111.069 112.455 111.519 112.454 111.969C112.451 112.657 112.438 113.343 112.425 114.031C112.423 114.469 112.421 114.906 112.419 115.344C112.414 115.549 112.409 115.754 112.404 115.965C112.413 117.053 112.473 117.464 113.176 118.354C114.48 119.313 115.987 119.052 117.539 118.868C118.799 118.529 119.459 118.054 120.272 117.051C121.075 115.567 121 114.257 121.008 112.613C121.013 112.347 121.019 112.081 121.024 111.807C121.034 109.947 120.791 108.823 119.568 107.354C118.203 106.256 116.709 106.159 115.001 106.194C114.197 106.283 113.706 106.521 113.089 107.033ZM32.1992 118.868C32.1101 119.039 32.021 119.21 31.9292 119.386C30.9074 121.215 29.9472 122.319 27.8767 122.917C27.3118 123.045 26.751 123.155 26.1782 123.242C26.2378 124.678 26.5846 125.425 27.5904 126.472C28.4308 127.216 29.1104 127.34 30.2194 127.439C31.9751 127.288 32.8801 126.521 33.9795 125.253C34.5327 124.429 34.5878 123.612 34.5807 122.643C34.5799 122.437 34.579 122.232 34.5782 122.02C34.576 121.807 34.5738 121.595 34.5715 121.376C34.5703 121.16 34.5692 120.944 34.568 120.721C34.5649 120.189 34.5602 119.657 34.5552 119.125C33.7777 119.04 33.0002 118.955 32.1992 118.868ZM90.8379 123.242C90.8379 124.6 90.8379 125.959 90.8379 127.358C99.3038 127.358 107.77 127.358 116.492 127.358C116.492 126 116.492 124.641 116.492 123.242C108.026 123.242 99.5604 123.242 90.8379 123.242Z" fill="rgb(255,255,255)" fill-rule="nonzero" />
	</g>
	<path id="Vector 81" d="M56.021 89.0223C66.1283 89.0223 76.2357 89.0223 86.6493 89.0223C86.6493 97.5129 86.6493 106.003 86.6493 114.751C76.5419 114.751 66.4346 114.751 56.021 114.751C56.021 106.261 56.021 97.7702 56.021 89.0223ZM60.733 93.6536C60.733 99.1724 60.733 104.691 60.733 110.377C67.7304 110.377 74.7278 110.377 81.9372 110.377C81.9372 104.859 81.9372 99.3397 81.9372 93.6536C74.9398 93.6536 67.9425 93.6536 60.733 93.6536Z" fill="rgb(255,255,255)" fill-rule="nonzero" />
	<path id="Vector 82" d="M67.0156 51.9725C67.2505 52.3228 67.2505 52.3228 67.4901 52.6801C68.2227 53.7498 68.9073 54.3933 70.157 54.8027C71.6472 54.9478 72.8139 54.8818 74.0837 54.0309C74.7087 53.4066 75.2535 52.7606 75.6544 51.9725C77.1426 52.3959 78.4729 53.0764 79.8429 53.7736C79.5938 55.5148 78.5276 56.6978 77.2138 57.841C74.9372 59.4753 72.4086 59.8855 69.6437 59.5807C67.1091 59.1132 64.9477 57.7338 63.4816 55.655C62.9985 54.9238 62.8271 54.6601 62.8271 53.7736C63.4264 53.4721 64.0264 53.1722 64.6269 52.8731C64.7973 52.7871 64.9677 52.7012 65.1433 52.6127C66.4328 51.9725 66.4328 51.9725 67.0156 51.9725Z" fill="rgb(255,255,255)" fill-rule="nonzero" />
	<path id="Vector 83" d="M69.1099 36.0206C70.5785 36.0206 72.0471 36.0206 73.5602 36.0206C73.6236 36.3652 73.6871 36.7098 73.7524 37.0648C73.8409 37.5261 73.9295 37.9875 74.0183 38.4487C74.0595 38.6748 74.1006 38.9008 74.1431 39.1337C74.4115 40.5089 74.7902 41.6985 75.4301 42.9516C75.8138 43.8587 75.9782 44.8601 75.6544 45.7976C74.5682 46.857 73.4127 47.465 72.0222 48.065C71.7519 48.1851 71.7519 48.1851 71.4762 48.3077C71.0374 48.5023 70.5974 48.694 70.157 48.8851C69.5619 48.1436 69.0902 47.3935 68.6518 46.5534C68.5344 46.3328 68.4169 46.1123 68.296 45.885C68.0628 45.283 68.0628 45.283 68.3246 44.5111C69.6917 43.7393 69.6917 43.7393 70.4188 43.7393C70.3463 43.5157 70.2737 43.2922 70.199 43.0619C70.0567 42.6171 70.0567 42.6171 69.9116 42.1634C69.7704 41.7246 69.7704 41.7246 69.6263 41.2769C69.1108 39.4904 69.087 37.8668 69.1099 36.0206Z" fill="rgb(255,255,255)" fill-rule="nonzero" />
	<path id="Vector 84" d="M83.2463 33.9622C83.9759 34.4587 84.2245 34.8028 84.5225 35.6185C84.5624 36.4237 84.4279 36.8596 84.0316 37.5643C83.3831 38.2489 83.025 38.3312 82.0683 38.4487C81.1521 38.3362 81.1521 38.3362 80.5303 37.8538C79.8284 36.9516 79.7068 36.3874 79.8431 35.2487C80.8322 33.8513 81.6236 33.7344 83.2463 33.9622Z" fill="rgb(255,255,255)" fill-rule="nonzero" />
	<path id="Vector 85" d="M61.5185 33.9623C62.3202 34.4608 62.3202 34.4608 62.8274 35.2487C62.9349 36.3267 62.8302 37.2342 62.1402 38.095C61.2585 38.4371 60.6264 38.4497 59.686 38.3362C58.8645 37.8623 58.4748 37.5568 58.1317 36.6799C58.1075 35.7072 58.4196 35.0814 58.9334 34.2678C59.7555 33.756 60.5955 33.7808 61.5185 33.9623Z" fill="rgb(255,255,255)" fill-rule="nonzero" />
</svg>
