<svg viewBox="0 0 150 150" xmlns="http://www.w3.org/2000/svg" xmlns:xlink="http://www.w3.org/1999/xlink" width="150.000000" height="150.000000" fill="none">
	<rect id="problem-solving 2" width="150.000000" height="150.000000" x="0.000000" y="0.000000" />
	<path id="Vector 87" d="M87.2776 39.6423C87.7255 40.0964 88.1701 40.5545 88.6121 41.0156C88.747 41.1557 88.8819 41.2957 89.0208 41.44C98.2361 51.072 103.46 64.4915 103.885 78.4149C104.064 87.7133 102.491 97.7343 97.936 105.734C97.6484 106.315 97.6484 106.315 97.7156 106.869C98.0688 107.834 98.711 108.456 99.3797 109.166C99.5282 109.327 99.6766 109.488 99.8296 109.654C100.152 110.004 100.476 110.353 100.8 110.701C101.315 111.253 101.827 111.809 102.338 112.365C103.793 113.946 105.253 115.521 106.714 117.095C107.608 118.059 108.499 119.026 109.389 119.994C109.89 120.538 110.395 121.079 110.899 121.619C113.69 124.638 115.75 127.709 116.103 132.129C116.12 132.331 116.138 132.534 116.155 132.742C116.358 137.185 114.722 141.551 112.16 144.906C109.715 147.783 106.458 149.893 102.815 150.109C98.2337 150.226 94.8656 149.233 91.3927 145.77C90.4687 144.8 89.5764 143.796 88.6866 142.788C88.1871 142.223 87.6846 141.661 87.1811 141.1C85.7522 139.508 84.3277 137.911 82.908 136.308C82.0347 135.323 81.1568 134.343 80.276 133.365C79.9426 132.993 79.6109 132.619 79.281 132.243C78.8218 131.72 78.3571 131.204 77.8908 130.689C77.7564 130.532 77.622 130.376 77.4836 130.215C77.0587 129.731 77.0586 129.731 76.3345 129.199C75.3713 129.245 74.5779 129.509 73.6947 129.918C73.5079 130.002 73.3211 130.086 73.1286 130.173C72.9315 130.262 72.7343 130.352 72.5312 130.444C60.8275 135.571 47.2481 135.464 35.6171 130.054C23.3476 124.132 13.7426 113.598 8.7672 99.8737C4.0467 86.362 4.35215 71.3166 9.63568 58.0501C12.041 52.2082 15.2737 47.1945 19.2171 42.4804C19.5247 42.1111 19.5247 42.1111 19.8385 41.7343C35.922 23.2955 63.6237 21.1309 87.2776 39.6423ZM23.7545 45.1171C23.5546 45.315 23.3547 45.5129 23.1487 45.7168C17.4494 51.6797 13.4784 60.0014 11.5436 68.2983C11.4906 68.5252 11.4375 68.7521 11.3828 68.9859C10.5744 72.6461 10.3079 76.2827 10.3259 80.0354C10.3264 80.2467 10.3268 80.4581 10.3274 80.6758C10.3474 85.8711 11.0385 90.5861 12.5445 95.5078C12.6327 95.8004 12.6327 95.8004 12.7227 96.099C14.6402 102.364 17.7518 107.994 21.8862 112.793C22.1933 113.188 22.4992 113.585 22.8036 113.983C29.9459 122.889 41.197 127.955 51.8215 128.792C63.3275 129.529 74.8988 125.386 83.5774 116.972C84.3792 116.18 85.1628 115.368 85.9431 114.551C86.1506 114.335 86.358 114.119 86.5718 113.897C87.3914 113.025 88.1158 112.168 88.7759 111.144C88.8954 110.959 89.0148 110.774 89.1379 110.584C89.2287 110.443 89.3194 110.302 89.4128 110.156C88.9506 110.156 88.9506 110.156 88.479 110.155C81.1558 110.144 73.8326 110.128 66.5094 110.104C65.6071 110.101 64.7048 110.098 63.8025 110.095C63.6229 110.095 63.4433 110.094 63.2582 110.094C60.3537 110.085 57.4492 110.08 54.5447 110.076C51.5621 110.073 48.5795 110.064 45.5969 110.052C43.9226 110.046 42.2484 110.041 40.574 110.041C38.9969 110.042 37.4199 110.036 35.8428 110.027C35.2652 110.024 34.6875 110.024 34.1098 110.026C29.8 110.036 26.5612 109.645 23.2207 106.348C21.1063 103.675 20.1621 100.308 20.2147 96.8138C20.4245 93.7779 21.6754 91.1155 23.0539 88.5315C23.2176 88.2174 23.3814 87.9034 23.5501 87.5799C24.0592 86.6067 24.5732 85.6369 25.089 84.6679C25.247 84.3702 25.405 84.0725 25.5678 83.7657C26.1851 82.6029 26.8032 81.4406 27.4238 80.2799C28.538 78.1925 29.6222 76.0885 30.694 73.9746C32.0649 71.2707 33.4703 68.592 34.8977 65.9237C36.0114 63.8363 37.0957 61.7327 38.1673 59.6191C39.5382 56.9152 40.9437 54.2366 42.371 51.5682C43.6448 49.1808 44.8775 46.77 46.1024 44.352C47.3656 41.8652 48.6668 39.4044 49.9898 36.9552C50.923 35.2176 51.7818 33.4575 52.5801 31.6406C41.6815 31.3326 31.6396 37.3107 23.7545 45.1171ZM58.1851 31.6406C56.2845 35.1857 54.4023 38.7395 52.5801 42.3339C51.2092 45.0379 49.8037 47.7165 48.3764 50.3849C47.2627 52.4722 46.1784 54.5758 45.1068 56.6894C43.7359 59.3933 42.3304 62.0719 40.9031 64.7403C39.7894 66.8277 38.7051 68.9313 37.6335 71.0449C36.4122 73.4537 35.1684 75.8454 33.8968 78.2226C32.4468 80.9335 31.0349 83.6652 29.6438 86.413C28.9167 87.8471 28.1832 89.2751 27.4234 90.6887C27.2204 91.0669 27.2204 91.0669 27.0133 91.4528C26.7629 91.9171 26.5108 92.3804 26.2565 92.8422C25.2371 94.7331 24.614 96.4848 24.8221 98.7304C25.6017 101.54 26.7308 103.206 29.0926 104.59C29.8176 104.855 30.2315 104.919 30.9755 104.919C31.307 104.92 31.307 104.92 31.6453 104.921C32.0094 104.919 32.0094 104.919 32.3809 104.918C32.7677 104.918 32.7677 104.918 33.1624 104.919C34.0304 104.919 34.8984 104.918 35.7664 104.916C36.3871 104.916 37.0078 104.916 37.6285 104.916C39.3169 104.916 41.0054 104.915 42.6938 104.912C44.2786 104.911 45.8633 104.911 47.4481 104.91C50.5872 104.91 53.7264 104.908 56.8656 104.905C59.9153 104.902 62.965 104.9 66.0146 104.899C66.2026 104.899 66.3905 104.899 66.5841 104.899C67.527 104.898 68.4698 104.898 69.4126 104.898C77.2359 104.894 85.0593 104.889 92.8826 104.883C93.27 104.087 93.6566 103.291 94.0427 102.495C94.1518 102.271 94.2609 102.047 94.3733 101.817C95.1607 100.191 95.859 98.5641 96.4191 96.8261C96.5484 96.4306 96.5484 96.4306 96.6803 96.027C100.445 83.9713 99.7341 70.4805 94.7019 58.9977C92.5752 54.3137 89.9227 50.1501 86.5839 46.4155C86.2308 46.0194 85.8839 45.6165 85.5375 45.2133C83.8657 43.3041 82.0366 41.666 80.0712 40.1367C79.9831 40.1367 79.895 40.1367 79.8043 40.1367C79.8033 40.4972 79.8023 40.8577 79.8013 41.2292C79.7915 44.6343 79.776 48.0393 79.7552 51.4444C79.7447 53.1948 79.7361 54.9451 79.732 56.6956C79.7279 58.3863 79.7187 60.0768 79.706 61.7675C79.702 62.411 79.6999 63.0546 79.6997 63.6981C79.6991 64.6028 79.6918 65.507 79.6831 66.4116C79.6851 66.8067 79.6851 66.8067 79.6872 67.2098C79.6468 69.9345 78.8178 72.2247 77.1175 74.2115C75.0925 76.1558 72.7861 76.3552 70.1958 76.1718C68.0418 75.8265 66.5331 74.4164 65.1246 72.6562C63.8024 70.3303 63.7501 67.8936 63.7513 65.2263C63.7504 64.9246 63.7495 64.6228 63.7486 64.3119C63.746 63.3164 63.7455 62.3209 63.7452 61.3254C63.7444 60.6314 63.7435 59.9374 63.7425 59.2434C63.7409 57.7892 63.7404 56.335 63.7406 54.8808C63.7406 53.0209 63.737 51.161 63.7324 49.3012C63.7294 47.8678 63.7289 46.4344 63.729 45.0011C63.7287 44.3156 63.7275 43.63 63.7255 42.9445C63.7228 41.984 63.7236 41.0236 63.7252 40.0631C63.7237 39.7822 63.7222 39.5013 63.7207 39.2119C63.7302 36.9612 64.0077 34.8784 64.8577 32.8125C64.3973 32.6677 63.9354 32.5285 63.4731 32.3913C63.2161 32.3131 62.9591 32.235 62.6943 32.1544C61.2013 31.8372 59.7012 31.7453 58.1851 31.6406ZM69.6619 34.5703C68.7271 36.0267 68.2954 36.9947 68.2917 38.7616C68.2906 39.0116 68.2895 39.2617 68.2883 39.5194C68.2884 39.7914 68.2885 40.0634 68.2887 40.3436C68.2878 40.6319 68.2869 40.9203 68.2859 41.2174C68.2834 42.1713 68.2829 43.1252 68.2826 44.0792C68.2817 44.7426 68.2808 45.406 68.2799 46.0694C68.2783 47.4606 68.2778 48.8518 68.278 50.243C68.278 52.0242 68.2744 53.8052 68.2698 55.5864C68.2668 56.9569 68.2663 58.3274 68.2664 59.6979C68.2661 60.3545 68.2649 61.011 68.2628 61.6676C68.2602 62.5869 68.261 63.5061 68.2626 64.4254C68.2611 64.6956 68.2596 64.9658 68.258 65.2442C68.2664 67.1351 68.3788 68.6954 69.4117 70.2758C70.453 71.1027 71.3199 71.3175 72.5979 71.1914C73.8052 70.5533 74.4522 69.8867 75 68.5547C75.1142 67.5307 75.1011 66.5143 75.0909 65.4838C75.091 65.175 75.0912 64.8662 75.0913 64.548C75.0907 63.5287 75.0845 62.5095 75.0782 61.4902C75.0767 60.7829 75.0756 60.0756 75.0748 59.3683C75.0717 57.5077 75.0639 55.6472 75.055 53.7867C75.0468 51.8877 75.0432 49.9887 75.0391 48.0898C75.0305 44.3645 75.017 40.6393 75 36.914C74.4119 36.5753 73.8224 36.2402 73.2318 35.9069C73.067 35.8116 72.9022 35.7162 72.7324 35.618C71.7083 35.0441 70.805 34.7073 69.6619 34.5703ZM94.484 111.621C94.1202 112.09 93.7663 112.568 93.4164 113.049C92.2165 114.674 90.9785 116.243 89.6797 117.773C89.4867 118.005 89.2937 118.236 89.0948 118.474C86.5777 121.372 83.5715 123.668 80.605 125.977C82.0354 127.876 83.6003 129.621 85.1789 131.37C85.321 131.528 85.4631 131.685 85.6095 131.848C86.3613 132.681 87.1142 133.513 87.8676 134.344C88.4858 135.026 89.102 135.711 89.7164 136.397C90.4646 137.233 91.2161 138.065 91.97 138.895C92.2541 139.208 92.537 139.523 92.8187 139.84C95.226 142.539 97.6144 144.728 101.173 144.818C104.029 144.783 106.331 143.713 108.363 141.504C110.386 138.856 111.411 136.202 111.299 132.715C110.663 128.272 107.517 125.588 104.743 122.55C104.454 122.233 104.165 121.915 103.876 121.597C103.276 120.938 102.676 120.28 102.075 119.622C101.304 118.777 100.534 117.931 99.764 117.084C99.1701 116.431 98.5755 115.779 97.9808 115.127C97.6963 114.815 97.4119 114.503 97.1278 114.19C96.7337 113.757 96.3388 113.324 95.9436 112.892C95.7191 112.646 95.4946 112.4 95.2633 112.146C94.8353 111.588 94.8353 111.588 94.484 111.621Z" fill="rgb(255,255,255)" fill-rule="nonzero" />
	<path id="Vector 88" d="M85.9943 1.56902C86.5408 1.99364 87.0379 2.44958 87.5446 2.92972C87.7584 3.12937 87.7584 3.12937 87.9766 3.33305C89.5346 4.91075 90.4995 6.85999 91.5315 8.86234C91.7301 9.24192 91.9291 9.62129 92.1284 10.0005C92.5375 10.7792 92.9455 11.5586 93.3528 12.3385C94.2472 14.0469 95.1669 15.7388 96.0855 17.4317C97.5686 20.1722 99.0403 22.9198 100.506 25.6714C101.91 28.3057 103.325 30.9309 104.76 33.545C106.188 36.1474 107.599 38.7601 108.997 41.3819C109.091 41.5588 109.186 41.7357 109.283 41.918C110.052 43.3604 110.82 44.8033 111.588 46.2463C112.259 47.506 112.93 48.7654 113.601 50.0244C113.695 50.2015 113.79 50.3785 113.887 50.5609C115.19 53.0035 116.508 55.4364 117.838 57.8614C119.752 61.3497 121.63 64.8603 123.501 68.3765C124.097 69.4964 124.697 70.6141 125.299 71.7302C125.706 72.4857 126.113 73.2418 126.52 73.9978C126.711 74.3526 126.902 74.7072 127.094 75.0614C129.743 79.949 131.895 84.1615 130.886 90.0124C129.888 93.3441 127.756 96.2382 124.911 97.8516C122.524 98.8494 120.364 99.1985 117.822 99.1791C117.492 99.1802 117.162 99.1814 116.823 99.1825C116.133 99.1833 115.443 99.1812 114.753 99.1762C113.696 99.1699 112.64 99.1762 111.584 99.1837C110.911 99.1829 110.237 99.1814 109.564 99.1791C109.249 99.1815 108.934 99.1839 108.61 99.1863C106.436 99.1589 106.436 99.1589 105.369 98.4644C104.797 97.7275 104.641 97.4081 104.543 96.4417C104.646 95.2937 104.971 94.8595 105.694 94.043C106.363 93.6758 106.825 93.7096 107.573 93.7038C107.995 93.6993 107.995 93.6993 108.424 93.6947C108.729 93.6926 109.034 93.6904 109.348 93.6882C109.993 93.68 110.637 93.6716 111.281 93.6631C112.298 93.651 113.314 93.6402 114.331 93.6324C115.311 93.6243 116.292 93.6109 117.272 93.5967C117.724 93.5952 117.724 93.5952 118.185 93.5938C120.478 93.5549 122.705 93.2934 124.377 91.4063C125.799 89.2159 126.334 87.3787 125.979 84.668C124.804 81.1105 122.72 77.87 120.94 74.6533C119.809 72.6079 118.705 70.5468 117.605 68.4815C117.414 68.1241 117.224 67.7666 117.033 67.4092C116.359 66.1455 115.686 64.8812 115.013 63.617C114.343 62.3574 113.672 61.098 113.001 59.8389C112.906 59.6619 112.812 59.4849 112.715 59.3025C111.411 56.8598 110.094 54.4269 108.763 52.002C107.336 49.3995 105.924 46.7869 104.526 44.1651C104.432 43.9882 104.338 43.8112 104.24 43.6289C103.471 42.1866 102.703 40.7436 101.935 39.3006C101.265 38.041 100.594 36.7816 99.9223 35.5225C99.8279 35.3455 99.7335 35.1685 99.6362 34.9861C98.1733 32.2442 96.6899 29.5164 95.1962 26.7946C94.0085 24.627 92.8366 22.4497 91.6726 20.2666C91.3836 19.7248 91.0943 19.1832 90.8049 18.6416C89.9181 16.9813 89.0355 15.3187 88.1629 13.6494C88.0098 13.3591 87.8567 13.0687 87.699 12.7696C87.4193 12.2389 87.1417 11.7069 86.8668 11.1733C85.783 9.12615 84.5219 7.142 82.6903 5.84109C80.4457 5.23525 78.1944 5.1774 76.1641 6.51336C74.103 8.20729 72.9328 11.3228 71.7305 13.7513C71.381 14.4498 71.0302 15.1476 70.6796 15.8455C70.5933 16.0176 70.5071 16.1897 70.4182 16.367C69.6213 17.9558 68.8141 19.5377 67.9939 21.1121C67.8173 21.4568 67.8173 21.4568 67.6371 21.8084C67.5277 22.0171 67.4184 22.2257 67.3058 22.4408C67.1658 22.7104 67.1658 22.7104 67.023 22.9856C66.7261 23.4375 66.7261 23.4375 65.9254 24.0235C64.6267 24.1844 64.0844 24.2388 62.9894 23.4375C62.3145 22.3262 62.2306 21.4981 62.4556 20.2149C62.9196 19.0653 63.5166 18.0199 64.1238 16.9556C64.4686 16.3317 64.8127 15.7072 65.156 15.0822C65.33 14.767 65.504 14.4518 65.6832 14.127C66.4622 12.6834 67.1763 11.2041 67.8938 9.72293C69.9692 5.50195 72.0295 1.97359 76.3346 0.292999C79.4606 -0.681647 83.2425 -0.299295 85.9943 1.56902Z" fill="rgb(255,255,255)" fill-rule="nonzero" />
	<path id="Vector 89" d="M77.4691 81.9214C79.1076 83.3795 80.3439 85.3551 80.8721 87.5976C81.1584 91.2957 80.9238 94.1224 78.7035 97.0642C76.7544 99.3132 74.578 100.222 71.7973 100.305C69.1219 100.313 67.0789 99.4862 65.1247 97.467C64.168 96.3218 63.4857 95.2033 62.9895 93.75C62.8794 93.4297 62.7693 93.1095 62.6559 92.7795C62.1456 90.0257 62.3756 87.4941 63.5233 84.9609C66.8794 79.7645 72.5229 78.2533 77.4691 81.9214ZM68.3943 86.8103C67.4669 88.0262 67.1967 89.0709 67.2433 90.6372C67.4474 92.2522 68.2953 93.2936 69.3952 94.3359C70.5222 95.0964 71.5767 95.077 72.865 94.9218C74.3796 94.3464 75.3509 93.273 76.0678 91.6992C76.2715 89.694 76.1188 88.3343 75.0002 86.7187C72.7167 84.7749 70.6213 84.7548 68.3943 86.8103Z" fill="rgb(255,255,255)" fill-rule="nonzero" />
</svg>
